<svg xmlns="http://www.w3.org/2000/svg" xmlns:xlink="http://www.w3.org/1999/xlink" viewBox="0 0 749.99986 500">
  <defs>
    <style>
      .cls-1, .cls-10, .cls-49, .cls-55, .cls-7, .cls-8, .cls-9 {
        fill: none;
      }

      .cls-2 {
        isolation: isolate;
      }

      .cls-3 {
        fill: url(#radial-gradient);
      }

      .cls-4 {
        clip-path: url(#clip-path);
      }

      .cls-5 {
        opacity: 0.14;
      }

      .cls-6 {
        fill: #fff;
      }

      .cls-10, .cls-7, .cls-8, .cls-9 {
        stroke: #19006a;
      }

      .cls-10, .cls-55, .cls-7, .cls-8, .cls-9 {
        stroke-linecap: round;
        stroke-linejoin: round;
      }

      .cls-10, .cls-49, .cls-55, .cls-7, .cls-8, .cls-9 {
        stroke-width: 2px;
      }

      .cls-7 {
        opacity: 0.1;
      }

      .cls-9 {
        opacity: 0.3;
      }

      .cls-10 {
        opacity: 0.08;
      }

      .cls-11 {
        opacity: 0.33;
      }

      .cls-12 {
        fill: url(#linear-gradient);
      }

      .cls-13 {
        fill: url(#linear-gradient-2);
      }

      .cls-14 {
        fill: url(#linear-gradient-3);
      }

      .cls-15 {
        fill: url(#linear-gradient-4);
      }

      .cls-16 {
        fill: url(#linear-gradient-5);
      }

      .cls-17 {
        fill: url(#linear-gradient-6);
      }

      .cls-18 {
        fill: url(#linear-gradient-7);
      }

      .cls-19 {
        fill: url(#linear-gradient-8);
      }

      .cls-20 {
        fill: url(#linear-gradient-9);
      }

      .cls-21 {
        fill: url(#linear-gradient-10);
      }

      .cls-22 {
        fill: url(#linear-gradient-11);
      }

      .cls-23 {
        fill: url(#linear-gradient-12);
      }

      .cls-24 {
        fill: url(#linear-gradient-13);
      }

      .cls-25 {
        fill: url(#linear-gradient-14);
      }

      .cls-26 {
        fill: url(#linear-gradient-15);
      }

      .cls-27 {
        fill: url(#linear-gradient-16);
      }

      .cls-28 {
        fill: url(#linear-gradient-17);
      }

      .cls-29 {
        fill: url(#linear-gradient-18);
      }

      .cls-30 {
        fill: url(#linear-gradient-19);
      }

      .cls-31 {
        fill: url(#linear-gradient-20);
      }

      .cls-32 {
        fill: url(#linear-gradient-21);
      }

      .cls-33 {
        fill: url(#linear-gradient-22);
      }

      .cls-34 {
        fill: url(#linear-gradient-23);
      }

      .cls-35 {
        fill: url(#linear-gradient-24);
      }

      .cls-36 {
        fill: url(#linear-gradient-25);
      }

      .cls-37 {
        fill: url(#linear-gradient-26);
      }

      .cls-38 {
        fill: url(#linear-gradient-27);
      }

      .cls-39 {
        fill: url(#linear-gradient-28);
      }

      .cls-40 {
        fill: url(#linear-gradient-29);
      }

      .cls-41 {
        fill: url(#linear-gradient-30);
      }

      .cls-42 {
        fill: url(#linear-gradient-31);
      }

      .cls-43 {
        fill: url(#linear-gradient-32);
      }

      .cls-44 {
        fill: url(#linear-gradient-33);
      }

      .cls-45 {
        fill: url(#linear-gradient-34);
      }

      .cls-46 {
        fill: url(#linear-gradient-35);
      }

      .cls-47 {
        fill: url(#linear-gradient-36);
      }

      .cls-48 {
        fill: url(#linear-gradient-37);
      }

      .cls-49, .cls-55 {
        stroke: #fff;
      }

      .cls-49 {
        stroke-miterlimit: 10;
      }

      .cls-49, .cls-54, .cls-56, .cls-57 {
        mix-blend-mode: overlay;
      }

      .cls-50 {
        fill: url(#linear-gradient-38);
      }

      .cls-51 {
        fill: url(#linear-gradient-39);
      }

      .cls-52 {
        fill: url(#linear-gradient-40);
      }

      .cls-53 {
        fill: url(#linear-gradient-41);
      }

      .cls-56 {
        opacity: 0.5;
      }

      .cls-57 {
        opacity: 0.22;
      }
    </style>
    <radialGradient id="radial-gradient" cx="232.27571" cy="-99.8135" r="799.9316" gradientUnits="userSpaceOnUse">
      <stop offset="0" stop-color="#7f00ff"/>
      <stop offset="0.99689" stop-color="#000046"/>
    </radialGradient>
    <clipPath id="clip-path">
      <rect class="cls-1" width="749.99986" height="500"/>
    </clipPath>
    <linearGradient id="linear-gradient" x1="541.24004" y1="83.47751" x2="609.56239" y2="83.47751" gradientUnits="userSpaceOnUse">
      <stop offset="0.00311" stop-color="#000046"/>
      <stop offset="1" stop-color="#7f00ff"/>
    </linearGradient>
    <linearGradient id="linear-gradient-2" x1="516.23818" y1="95.11842" x2="634.55025" y2="95.11842" xlink:href="#linear-gradient"/>
    <linearGradient id="linear-gradient-3" x1="499.83433" y1="113.76455" x2="650.84846" y2="113.76455" xlink:href="#linear-gradient"/>
    <linearGradient id="linear-gradient-4" x1="492.32593" y1="138.08225" x2="658.24869" y2="138.08225" xlink:href="#linear-gradient"/>
    <linearGradient id="linear-gradient-5" x1="492.27559" y1="165.92657" x2="658.24718" y2="165.92657" xlink:href="#linear-gradient"/>
    <linearGradient id="linear-gradient-6" x1="499.06936" y1="192.6483" x2="651.35776" y2="192.6483" xlink:href="#linear-gradient"/>
    <linearGradient id="linear-gradient-7" x1="513.78163" y1="215.73944" x2="636.5652" y2="215.73944" xlink:href="#linear-gradient"/>
    <linearGradient id="linear-gradient-8" x1="538.95198" y1="241.34737" x2="559.73453" y2="241.34737" xlink:href="#linear-gradient"/>
    <linearGradient id="linear-gradient-9" x1="534.82622" y1="233.45241" x2="615.46133" y2="233.45241" xlink:href="#linear-gradient"/>
    <linearGradient id="linear-gradient-10" x1="560.60765" y1="241.77533" x2="589.64729" y2="241.77533" xlink:href="#linear-gradient"/>
    <linearGradient id="linear-gradient-11" x1="559.18463" y1="81.14455" x2="594.16579" y2="87.79099" gradientTransform="translate(658.57911 -491.34648) rotate(89.89345)" gradientUnits="userSpaceOnUse">
      <stop offset="0" stop-color="#e100ff"/>
      <stop offset="0.99689" stop-color="#000046"/>
    </linearGradient>
    <linearGradient id="linear-gradient-12" x1="535.09057" y1="92.70286" x2="615.70693" y2="92.70286" gradientTransform="matrix(1, 0, 0, 1, 0, 0)" xlink:href="#linear-gradient-11"/>
    <linearGradient id="linear-gradient-13" x1="558.61429" y1="81.1672" x2="561.35053" y2="81.1672" gradientTransform="matrix(1, 0, 0, 1, 0, 0)" xlink:href="#linear-gradient-11"/>
    <linearGradient id="linear-gradient-14" x1="622.77524" y1="95.02442" x2="623.85448" y2="95.02442" gradientTransform="matrix(1, 0, 0, 1, 0, 0)" xlink:href="#linear-gradient-11"/>
    <linearGradient id="linear-gradient-15" x1="526.89643" y1="94.90835" x2="527.90501" y2="94.90835" gradientTransform="matrix(1, 0, 0, 1, 0, 0)" xlink:href="#linear-gradient-11"/>
    <linearGradient id="linear-gradient-16" x1="513.98731" y1="110.64785" x2="636.76111" y2="110.64785" gradientTransform="matrix(1, 0, 0, 1, 0, 0)" xlink:href="#linear-gradient-11"/>
    <linearGradient id="linear-gradient-17" x1="499.19131" y1="133.35719" x2="651.47682" y2="133.35719" gradientTransform="matrix(1, 0, 0, 1, 0, 0)" xlink:href="#linear-gradient-11"/>
    <linearGradient id="linear-gradient-18" x1="492.30087" y1="160.08235" x2="658.27141" y2="160.08235" gradientTransform="matrix(1, 0, 0, 1, 0, 0)" xlink:href="#linear-gradient-11"/>
    <linearGradient id="linear-gradient-19" x1="492.29849" y1="187.92767" x2="658.2221" y2="187.92767" gradientTransform="matrix(1, 0, 0, 1, 0, 0)" xlink:href="#linear-gradient-11"/>
    <linearGradient id="linear-gradient-20" x1="499.69746" y1="212.24005" x2="650.71399" y2="212.24005" gradientTransform="matrix(1, 0, 0, 1, 0, 0)" xlink:href="#linear-gradient-11"/>
    <linearGradient id="linear-gradient-21" x1="516.00534" y1="230.89095" x2="634.30872" y2="230.89095" gradientTransform="matrix(1, 0, 0, 1, 0, 0)" xlink:href="#linear-gradient-11"/>
    <linearGradient id="linear-gradient-22" x1="540.98048" y1="242.5241" x2="609.25229" y2="242.5241" gradientTransform="matrix(1, 0, 0, 1, 0, 0)" xlink:href="#linear-gradient-11"/>
    <linearGradient id="linear-gradient-23" x1="-384.83005" y1="-269.38983" x2="-316.50772" y2="-269.38983" gradientTransform="translate(-165.83057 735.89785) rotate(90)" xlink:href="#linear-gradient"/>
    <linearGradient id="linear-gradient-24" x1="-409.83191" y1="-257.74893" x2="-291.51985" y2="-257.74893" gradientTransform="translate(-165.83057 735.89785) rotate(90)" xlink:href="#linear-gradient"/>
    <linearGradient id="linear-gradient-25" x1="-426.23578" y1="-239.10277" x2="-275.22163" y2="-239.10277" gradientTransform="translate(-165.83057 735.89785) rotate(90)" xlink:href="#linear-gradient"/>
    <linearGradient id="linear-gradient-26" x1="-433.74417" y1="-214.78512" x2="-267.8214" y2="-214.78512" gradientTransform="translate(-165.83057 735.89785) rotate(90)" xlink:href="#linear-gradient"/>
    <linearGradient id="linear-gradient-27" x1="-433.7945" y1="-186.94074" x2="-267.8229" y2="-186.94074" gradientTransform="translate(-165.83057 735.89785) rotate(90)" xlink:href="#linear-gradient"/>
    <linearGradient id="linear-gradient-28" x1="-427.00073" y1="-160.21897" x2="-274.71233" y2="-160.21897" gradientTransform="translate(-165.83057 735.89785) rotate(90)" xlink:href="#linear-gradient"/>
    <linearGradient id="linear-gradient-29" x1="-366.88546" y1="-271.72278" x2="-331.90429" y2="-265.07634" gradientTransform="matrix(-1, 0.00186, -0.00186, -1, -248.34155, 117.26242)" xlink:href="#linear-gradient-11"/>
    <linearGradient id="linear-gradient-30" x1="-390.97952" y1="-260.16448" x2="-310.36316" y2="-260.16448" gradientTransform="translate(-165.83057 735.89785) rotate(90)" xlink:href="#linear-gradient-11"/>
    <linearGradient id="linear-gradient-31" x1="-367.4558" y1="-271.70011" x2="-364.71956" y2="-271.70011" gradientTransform="translate(-165.83057 735.89785) rotate(90)" xlink:href="#linear-gradient-11"/>
    <linearGradient id="linear-gradient-32" x1="-303.29485" y1="-257.84296" x2="-302.21561" y2="-257.84296" gradientTransform="translate(-165.83057 735.89785) rotate(90)" xlink:href="#linear-gradient-11"/>
    <linearGradient id="linear-gradient-33" x1="-399.17366" y1="-257.95902" x2="-398.16508" y2="-257.95902" gradientTransform="translate(-165.83057 735.89785) rotate(90)" xlink:href="#linear-gradient-11"/>
    <linearGradient id="linear-gradient-34" x1="-412.08278" y1="-242.21946" x2="-289.30899" y2="-242.21946" gradientTransform="translate(-165.83057 735.89785) rotate(90)" xlink:href="#linear-gradient-11"/>
    <linearGradient id="linear-gradient-35" x1="-426.87878" y1="-219.51009" x2="-274.59326" y2="-219.51009" gradientTransform="translate(-165.83057 735.89785) rotate(90)" xlink:href="#linear-gradient-11"/>
    <linearGradient id="linear-gradient-36" x1="-433.76923" y1="-192.78503" x2="-267.79868" y2="-192.78503" gradientTransform="translate(-165.83057 735.89785) rotate(90)" xlink:href="#linear-gradient-11"/>
    <linearGradient id="linear-gradient-37" x1="-433.7716" y1="-164.93958" x2="-267.84798" y2="-164.93958" gradientTransform="translate(-165.83057 735.89785) rotate(90)" xlink:href="#linear-gradient-11"/>
    <linearGradient id="linear-gradient-38" x1="474.89608" y1="254.09346" x2="509.96846" y2="294.45312" gradientTransform="matrix(1, 0, 0, 1, 0, 0)" xlink:href="#linear-gradient-11"/>
    <linearGradient id="linear-gradient-39" x1="111.41553" y1="160.76675" x2="135.26461" y2="188.21117" gradientTransform="matrix(1, 0, 0, 1, 0, 0)" xlink:href="#linear-gradient-11"/>
    <linearGradient id="linear-gradient-40" x1="706.43671" y1="453.43889" x2="752.84529" y2="506.84373" gradientTransform="matrix(1, 0, 0, 1, 0, 0)" xlink:href="#linear-gradient-11"/>
    <linearGradient id="linear-gradient-41" x1="465.15317" y1="391.95831" x2="488.19505" y2="418.47385" gradientTransform="matrix(1, 0, 0, 1, 0, 0)" xlink:href="#linear-gradient-11"/>
  </defs>
  <g class="cls-2">
    <g id="OBJECTS">
      <g>
        <rect class="cls-3" width="749.99986" height="500"/>
        <g class="cls-4">
          <g class="cls-5">
            <g>
              <path class="cls-6" d="M34.98134,26.00625a1.565,1.565,0,1,1-1.56493-1.56493A1.56489,1.56489,0,0,1,34.98134,26.00625Z"/>
              <circle class="cls-6" cx="95.54214" cy="26.00625" r="1.56493"/>
              <path class="cls-6" d="M159.23294,26.00625a1.565,1.565,0,1,1-1.56506-1.56493A1.565,1.565,0,0,1,159.23294,26.00625Z"/>
              <path class="cls-6" d="M221.35867,26.00625a1.565,1.565,0,1,1-1.56506-1.56493A1.565,1.565,0,0,1,221.35867,26.00625Z"/>
              <path class="cls-6" d="M283.4844,26.00625a1.565,1.565,0,1,1-1.56492-1.56493A1.56488,1.56488,0,0,1,283.4844,26.00625Z"/>
              <circle class="cls-6" cx="344.04521" cy="26.00625" r="1.56493"/>
              <path class="cls-6" d="M407.736,26.00625a1.565,1.565,0,1,1-1.56507-1.56493A1.565,1.565,0,0,1,407.736,26.00625Z"/>
              <path class="cls-6" d="M469.86174,26.00625a1.565,1.565,0,1,1-1.56506-1.56493A1.565,1.565,0,0,1,469.86174,26.00625Z"/>
              <path class="cls-6" d="M531.98748,26.00625a1.565,1.565,0,1,1-1.56493-1.56493A1.56489,1.56489,0,0,1,531.98748,26.00625Z"/>
              <circle class="cls-6" cx="592.54829" cy="26.00625" r="1.56493"/>
              <path class="cls-6" d="M656.23908,26.00625a1.565,1.565,0,1,1-1.56506-1.56493A1.565,1.565,0,0,1,656.23908,26.00625Z"/>
              <path class="cls-6" d="M718.36482,26.00625a1.565,1.565,0,1,1-1.56493-1.56493A1.565,1.565,0,0,1,718.36482,26.00625Z"/>
            </g>
            <g>
              <path class="cls-6" d="M34.98134,82.867a1.565,1.565,0,1,1-1.56493-1.56507A1.56488,1.56488,0,0,1,34.98134,82.867Z"/>
              <path class="cls-6" d="M97.10706,82.867a1.56493,1.56493,0,1,1-1.56492-1.56507A1.56487,1.56487,0,0,1,97.10706,82.867Z"/>
              <path class="cls-6" d="M159.23294,82.867a1.565,1.565,0,1,1-1.56506-1.56507A1.565,1.565,0,0,1,159.23294,82.867Z"/>
              <path class="cls-6" d="M221.35867,82.867a1.565,1.565,0,1,1-1.56506-1.56507A1.565,1.565,0,0,1,221.35867,82.867Z"/>
              <path class="cls-6" d="M283.4844,82.867a1.565,1.565,0,1,1-1.56492-1.56507A1.56487,1.56487,0,0,1,283.4844,82.867Z"/>
              <path class="cls-6" d="M345.61014,82.867a1.56493,1.56493,0,1,1-1.56493-1.56507A1.56488,1.56488,0,0,1,345.61014,82.867Z"/>
              <path class="cls-6" d="M407.736,82.867a1.565,1.565,0,1,1-1.56507-1.56507A1.565,1.565,0,0,1,407.736,82.867Z"/>
              <path class="cls-6" d="M469.86174,82.867a1.565,1.565,0,1,1-1.56506-1.56507A1.565,1.565,0,0,1,469.86174,82.867Z"/>
              <path class="cls-6" d="M531.98748,82.867a1.565,1.565,0,1,1-1.56493-1.56507A1.56488,1.56488,0,0,1,531.98748,82.867Z"/>
              <path class="cls-6" d="M594.11323,82.867a1.56494,1.56494,0,1,1-1.565-1.56507A1.5649,1.5649,0,0,1,594.11323,82.867Z"/>
              <path class="cls-6" d="M656.23908,82.867a1.565,1.565,0,1,1-1.56506-1.56507A1.565,1.565,0,0,1,656.23908,82.867Z"/>
              <path class="cls-6" d="M718.36482,82.867a1.565,1.565,0,1,1-1.56493-1.56507A1.565,1.565,0,0,1,718.36482,82.867Z"/>
            </g>
            <g>
              <path class="cls-6" d="M97.10706,139.72777a1.56493,1.56493,0,1,1-1.56492-1.56506A1.565,1.565,0,0,1,97.10706,139.72777Z"/>
              <path class="cls-6" d="M159.23294,139.72777a1.565,1.565,0,1,1-1.56506-1.56506A1.56509,1.56509,0,0,1,159.23294,139.72777Z"/>
              <path class="cls-6" d="M221.35867,139.72777a1.565,1.565,0,1,1-1.56506-1.56506A1.56509,1.56509,0,0,1,221.35867,139.72777Z"/>
              <path class="cls-6" d="M283.4844,139.72777a1.565,1.565,0,1,1-1.56492-1.56506A1.565,1.565,0,0,1,283.4844,139.72777Z"/>
              <path class="cls-6" d="M345.61014,139.72777a1.56493,1.56493,0,1,1-1.56493-1.56506A1.565,1.565,0,0,1,345.61014,139.72777Z"/>
              <path class="cls-6" d="M407.736,139.72777a1.565,1.565,0,1,1-1.56507-1.56506A1.5651,1.5651,0,0,1,407.736,139.72777Z"/>
              <path class="cls-6" d="M469.86174,139.72777a1.565,1.565,0,1,1-1.56506-1.56506A1.56509,1.56509,0,0,1,469.86174,139.72777Z"/>
              <path class="cls-6" d="M531.98748,139.72777a1.565,1.565,0,1,1-1.56493-1.56506A1.565,1.565,0,0,1,531.98748,139.72777Z"/>
              <path class="cls-6" d="M594.11323,139.72777a1.56494,1.56494,0,1,1-1.565-1.56506A1.565,1.565,0,0,1,594.11323,139.72777Z"/>
              <path class="cls-6" d="M718.36482,139.72777a1.565,1.565,0,1,1-1.56493-1.56506A1.56507,1.56507,0,0,1,718.36482,139.72777Z"/>
            </g>
            <g>
              <path class="cls-6" d="M34.98134,196.5884a1.565,1.565,0,1,1-1.56493-1.56493A1.565,1.565,0,0,1,34.98134,196.5884Z"/>
              <path class="cls-6" d="M97.10706,196.5884a1.56493,1.56493,0,1,1-1.56492-1.56493A1.565,1.565,0,0,1,97.10706,196.5884Z"/>
              <path class="cls-6" d="M159.23294,196.5884a1.565,1.565,0,1,1-1.56506-1.56493A1.56512,1.56512,0,0,1,159.23294,196.5884Z"/>
              <path class="cls-6" d="M407.736,196.5884a1.565,1.565,0,1,1-1.56507-1.56493A1.56512,1.56512,0,0,1,407.736,196.5884Z"/>
              <path class="cls-6" d="M469.86174,196.5884a1.565,1.565,0,1,1-1.56506-1.56493A1.56511,1.56511,0,0,1,469.86174,196.5884Z"/>
              <path class="cls-6" d="M531.98748,196.5884a1.565,1.565,0,1,1-1.56493-1.56493A1.565,1.565,0,0,1,531.98748,196.5884Z"/>
              <path class="cls-6" d="M594.11323,196.5884a1.56494,1.56494,0,1,1-1.565-1.56493A1.565,1.565,0,0,1,594.11323,196.5884Z"/>
              <path class="cls-6" d="M718.36482,196.5884a1.565,1.565,0,1,1-1.56493-1.56493A1.56509,1.56509,0,0,1,718.36482,196.5884Z"/>
            </g>
            <g>
              <path class="cls-6" d="M34.98134,253.44916a1.565,1.565,0,1,1-1.56493-1.56493A1.56488,1.56488,0,0,1,34.98134,253.44916Z"/>
              <circle class="cls-6" cx="95.54214" cy="253.44916" r="1.56493"/>
              <path class="cls-6" d="M159.23294,253.44916a1.565,1.565,0,1,1-1.56506-1.56493A1.565,1.565,0,0,1,159.23294,253.44916Z"/>
              <path class="cls-6" d="M407.736,253.44916a1.565,1.565,0,1,1-1.56507-1.56493A1.565,1.565,0,0,1,407.736,253.44916Z"/>
              <path class="cls-6" d="M469.86174,253.44916a1.565,1.565,0,1,1-1.56506-1.56493A1.565,1.565,0,0,1,469.86174,253.44916Z"/>
              <path class="cls-6" d="M531.98748,253.44916a1.565,1.565,0,1,1-1.56493-1.56493A1.56488,1.56488,0,0,1,531.98748,253.44916Z"/>
              <circle class="cls-6" cx="592.54829" cy="253.44916" r="1.56493"/>
            </g>
            <g>
              <path class="cls-6" d="M34.98134,310.30992a1.565,1.565,0,1,1-1.56493-1.56506A1.56489,1.56489,0,0,1,34.98134,310.30992Z"/>
              <path class="cls-6" d="M97.10706,310.30992a1.56493,1.56493,0,1,1-1.56492-1.56506A1.56488,1.56488,0,0,1,97.10706,310.30992Z"/>
              <path class="cls-6" d="M159.23294,310.30992a1.565,1.565,0,1,1-1.56506-1.56506A1.565,1.565,0,0,1,159.23294,310.30992Z"/>
              <path class="cls-6" d="M283.4844,310.30992a1.565,1.565,0,1,1-1.56492-1.56506A1.56488,1.56488,0,0,1,283.4844,310.30992Z"/>
              <path class="cls-6" d="M345.61014,310.30992a1.56493,1.56493,0,1,1-1.56493-1.56506A1.56489,1.56489,0,0,1,345.61014,310.30992Z"/>
              <path class="cls-6" d="M407.736,310.30992a1.565,1.565,0,1,1-1.56507-1.56506A1.565,1.565,0,0,1,407.736,310.30992Z"/>
              <path class="cls-6" d="M469.86174,310.30992a1.565,1.565,0,1,1-1.56506-1.56506A1.565,1.565,0,0,1,469.86174,310.30992Z"/>
              <path class="cls-6" d="M531.98748,310.30992a1.565,1.565,0,1,1-1.56493-1.56506A1.56489,1.56489,0,0,1,531.98748,310.30992Z"/>
              <path class="cls-6" d="M594.11323,310.30992a1.56494,1.56494,0,1,1-1.565-1.56506A1.5649,1.5649,0,0,1,594.11323,310.30992Z"/>
            </g>
            <g>
              <path class="cls-6" d="M34.98134,367.17055a1.565,1.565,0,1,1-1.56493-1.56493A1.565,1.565,0,0,1,34.98134,367.17055Z"/>
              <path class="cls-6" d="M97.10706,367.17055a1.56493,1.56493,0,1,1-1.56492-1.56493A1.565,1.565,0,0,1,97.10706,367.17055Z"/>
              <path class="cls-6" d="M221.35867,367.17055a1.565,1.565,0,1,1-1.56506-1.56493A1.56512,1.56512,0,0,1,221.35867,367.17055Z"/>
              <path class="cls-6" d="M283.4844,367.17055a1.565,1.565,0,1,1-1.56492-1.56493A1.565,1.565,0,0,1,283.4844,367.17055Z"/>
              <path class="cls-6" d="M345.61014,367.17055a1.56493,1.56493,0,1,1-1.56493-1.56493A1.565,1.565,0,0,1,345.61014,367.17055Z"/>
              <path class="cls-6" d="M407.736,367.17055a1.565,1.565,0,1,1-1.56507-1.56493A1.56512,1.56512,0,0,1,407.736,367.17055Z"/>
              <path class="cls-6" d="M469.86174,367.17055a1.565,1.565,0,1,1-1.56506-1.56493A1.56511,1.56511,0,0,1,469.86174,367.17055Z"/>
              <path class="cls-6" d="M531.98748,367.17055a1.565,1.565,0,1,1-1.56493-1.56493A1.565,1.565,0,0,1,531.98748,367.17055Z"/>
              <path class="cls-6" d="M594.11323,367.17055a1.56494,1.56494,0,1,1-1.565-1.56493A1.565,1.565,0,0,1,594.11323,367.17055Z"/>
              <path class="cls-6" d="M656.23908,367.17055a1.565,1.565,0,1,1-1.56506-1.56493A1.56511,1.56511,0,0,1,656.23908,367.17055Z"/>
            </g>
            <g>
              <path class="cls-6" d="M97.10706,424.03131a1.56493,1.56493,0,1,1-1.56492-1.56492A1.565,1.565,0,0,1,97.10706,424.03131Z"/>
              <path class="cls-6" d="M159.23294,424.03131a1.565,1.565,0,1,1-1.56506-1.56492A1.56512,1.56512,0,0,1,159.23294,424.03131Z"/>
              <path class="cls-6" d="M221.35867,424.03131a1.565,1.565,0,1,1-1.56506-1.56492A1.56512,1.56512,0,0,1,221.35867,424.03131Z"/>
              <path class="cls-6" d="M283.4844,424.03131a1.565,1.565,0,1,1-1.56492-1.56492A1.565,1.565,0,0,1,283.4844,424.03131Z"/>
              <path class="cls-6" d="M345.61014,424.03131a1.56493,1.56493,0,1,1-1.56493-1.56492A1.565,1.565,0,0,1,345.61014,424.03131Z"/>
              <path class="cls-6" d="M407.736,424.03131a1.565,1.565,0,1,1-1.56507-1.56492A1.56513,1.56513,0,0,1,407.736,424.03131Z"/>
              <path class="cls-6" d="M469.86174,424.03131a1.565,1.565,0,1,1-1.56506-1.56492A1.56512,1.56512,0,0,1,469.86174,424.03131Z"/>
              <path class="cls-6" d="M531.98748,424.03131a1.565,1.565,0,1,1-1.56493-1.56492A1.565,1.565,0,0,1,531.98748,424.03131Z"/>
              <path class="cls-6" d="M718.36482,424.03131a1.565,1.565,0,1,1-1.56493-1.56492A1.5651,1.5651,0,0,1,718.36482,424.03131Z"/>
            </g>
            <g>
              <path class="cls-6" d="M34.98134,480.89207a1.565,1.565,0,1,1-1.56493-1.56492A1.56489,1.56489,0,0,1,34.98134,480.89207Z"/>
              <circle class="cls-6" cx="95.54214" cy="480.89207" r="1.56493"/>
              <path class="cls-6" d="M159.23294,480.89207a1.565,1.565,0,1,1-1.56506-1.56492A1.565,1.565,0,0,1,159.23294,480.89207Z"/>
              <path class="cls-6" d="M221.35867,480.89207a1.565,1.565,0,1,1-1.56506-1.56492A1.565,1.565,0,0,1,221.35867,480.89207Z"/>
              <path class="cls-6" d="M283.4844,480.89207a1.565,1.565,0,1,1-1.56492-1.56492A1.56488,1.56488,0,0,1,283.4844,480.89207Z"/>
              <circle class="cls-6" cx="344.04521" cy="480.89207" r="1.56493"/>
              <path class="cls-6" d="M407.736,480.89207a1.565,1.565,0,1,1-1.56507-1.56492A1.565,1.565,0,0,1,407.736,480.89207Z"/>
              <path class="cls-6" d="M469.86174,480.89207a1.565,1.565,0,1,1-1.56506-1.56492A1.565,1.565,0,0,1,469.86174,480.89207Z"/>
              <path class="cls-6" d="M531.98748,480.89207a1.565,1.565,0,1,1-1.56493-1.56492A1.56489,1.56489,0,0,1,531.98748,480.89207Z"/>
              <path class="cls-6" d="M718.36482,480.89207a1.565,1.565,0,1,1-1.56493-1.56492A1.565,1.565,0,0,1,718.36482,480.89207Z"/>
            </g>
          </g>
        </g>
        <g class="cls-4">
          <rect class="cls-7" x="274.64997" y="90.95151" width="46.24547" height="46.24547" transform="translate(6.55294 243.96868) rotate(-45)"/>
          <rect class="cls-7" x="165.29641" y="-8.32757" width="16.65513" height="16.65513" transform="translate(50.85329 122.77069) rotate(-45)"/>
          <rect class="cls-8" x="444.1483" y="446.78784" width="64.972" height="64.972" transform="translate(-199.29482 477.40639) rotate(-44.99991)"/>
          <rect class="cls-8" x="687.18574" y="435.90321" width="64.97195" height="64.97195" transform="translate(-120.4142 646.07278) rotate(-45)"/>
          <rect class="cls-9" x="131.48457" y="336.27375" width="44.97569" height="44.97569" transform="translate(-208.58562 213.95463) rotate(-45.00013)"/>
          <rect class="cls-10" x="-36.30612" y="27.71253" width="44.97564" height="44.97564" transform="translate(-39.5443 4.93233) rotate(-45)"/>
          <rect class="cls-9" x="680.12591" y="150.12839" width="44.97565" height="44.97565" transform="translate(83.73175 547.37948) rotate(-44.99985)"/>
        </g>
        <g class="cls-4">
          <g>
            <path class="cls-1" d="M534.20249,235.43671a64.58562,64.58562,0,0,0,40.92271,7.55037,64.58562,64.58562,0,0,1-40.92271-7.55037,85.60453,85.60453,0,0,1-7.36343-4.70877c-1.76124-1.33615-4.1096-3.12117-5.79878-4.54743-1.386-1.17034-3.19268-2.78717-4.44375-4.10079-1.48349-1.55793-3.469-3.63093-4.87-5.26372-1.221-1.4229-2.76046-3.39668-3.86279-4.91347a79.30245,79.30245,0,0,1-7.004-11.47808c-.90811-1.91866-2.115-4.48139-2.91169-6.449-.73168-1.80672-1.57851-4.26674-2.17893-6.12117a79.51,79.51,0,0,1-2.70979-11.52412,98.4822,98.4822,0,0,1-1.0584-13.45886,84.03132,84.03132,0,0,1,1.20728-14.04682,80.04044,80.04044,0,0,1,3.45545-13.3381c.71474-2.04739,1.80238-4.73046,2.685-6.7111.78132-1.75327,1.99755-4.00873,2.85684-5.725a68.62611,68.62611,0,0,1,3.811-6.27789c1.03461-1.56856,2.57015-3.55215,3.676-5.07145a69.73454,69.73454,0,0,1,5.01718-5.82846c1.24224-1.32831,2.95983-3.04589,4.31864-4.25485,1.9069-1.69673,4.54-3.85746,6.557-5.42168a82.577,82.577,0,0,1,9.484-6.11222,68.32255,68.32255,0,0,1,8.60793-4.1334c1.74011-.677,4.06889-1.56254,5.84552-2.13694,1.80895-.58488,4.25123-1.2736,6.09809-1.72444a82.646,82.646,0,0,1,23.90624-2.25965c1.19426.05359,3.95513.26334,5.82327.503,3.00378.38536,3.58811.49758,6.8313,1.12052a84.8516,84.8516,0,0,1,9.95443,2.71875,83.23837,83.23837,0,0,1,9.94869,4.13774,81.56543,81.56543,0,0,1,10.70541,6.32238,85.13562,85.13562,0,0,1,10.02033,8.18522,83.42463,83.42463,0,0,1,16.02915,21.1311,112.5204,112.5204,0,0,1,5.14745,11.80578,69.57078,69.57078,0,0,1,2.04835,6.8688c.49058,1.923.95065,4.53218,1.356,6.4749a56.84149,56.84149,0,0,1,.8934,7.24688,78.93,78.93,0,0,1,.24529,8.30387c-.11054,2.03129-.19478,4.74543-.40564,6.76875a69.41218,69.41218,0,0,1-1.05686,7.26912,82.75,82.75,0,0,1-9.656,25.92453c-1.93545,3.22835-4.81525,7.35195-7.08078,10.35769-1.39464,1.85023-3.548,4.07952-5.09874,5.80089a55.49638,55.49638,0,0,1-4.35014,4.19762c-1.94272,1.69085-4.64174,3.81786-6.67486,5.399a57.34878,57.34878,0,0,1-5.55543,3.71124c-2.48118,1.4583-5.86961,3.26893-8.45893,4.52518a81.41685,81.41685,0,0,1-12.34323,4.55121,83.17878,83.17878,0,0,1-49.43969-1.31991c-1.73409-.57272-4.01933-1.42794-5.6846-2.17766C540.124,238.48456,536.723,236.7737,534.20249,235.43671Z"/>
            <g class="cls-11">
              <path class="cls-12" d="M609.56239,87.11472l-3.914-1.655c-4.59444-1.68513-4.77369-1.75089-7.6374-2.57771-3.79366-1.00466-3.79366-1.00466-5.82915-1.4292l-1.37561-.27271a91.40632,91.40632,0,0,0-29.45568-.28349,85.10042,85.10042,0,0,0-17.67313,5.05368L541.24,86.99872c17.08348-6.94771,51.56389-6.88922,68.32235.116"/>
              <path class="cls-13" d="M634.55025,104.52759l-2.77891-2.68656c-5.83365-5.02011-5.83365-5.02011-8.9961-7.21987q-.64562-.43721-1.40331-.8681c-12.4521-7.07448-43.13283-10.04118-68.52746-6.6263-11.79933,1.58675-20.38153,4.27206-24.93946,7.40219-2.73344,2.03521-6.2874,4.8729-8.87658,7.08861l-2.79025,2.6779c4.53078-4.51763,15.73684-8.48648,32.11566-10.689,30.43363-4.09254,67.20237-.53717,82.12527,7.941a18.91521,18.91521,0,0,1,4.07114,2.98013"/>
              <path class="cls-14" d="M650.84846,127.98384l-2.35257-4.67547c-1.45382-2.44743-3.40844-5.70447-4.99939-8.065a17.70211,17.70211,0,0,0-5.81446-4.79483c-16.87849-9.58936-58.46556-13.61067-92.88748-8.9818-20.24258,2.72224-33.49938,7.82966-37.55344,13.52574-1.557,2.38769-3.61735,5.585-5.03549,8.05774l-2.3713,4.66987c3.19811-6.78386,18.1907-12.98857,41.98444-16.18824,37.74906-5.07636,83.356-.66647,101.86607,9.8499,3.76665,2.14,6.12089,4.36791,7.16362,6.6021"/>
              <path class="cls-15" d="M658.24869,155.89936c-.25522-2.04081-.518-4.77341-.857-6.80191-.50513-2.41231-1.13748-5.64011-1.76182-8.02444-.75336-2.75485-3.368-5.52-8.01255-8.1589-19.581-11.12477-67.82683-15.78988-107.76012-10.41982-26.54694,3.56977-42.73728,10.67588-44.85631,18.30727-.56138,2.40154-1.351,5.59659-1.79258,8.0229-.26668,2.03955-.69977,4.75046-.88236,6.79911.737-8.31058,17.69481-16.19762,46.43309-20.06221,41.14141-5.53251,90.84695-.72622,111.02027,10.73507,5.45863,3.10116,8.19557,6.37192,8.4694,9.60293"/>
              <path class="cls-16" d="M655.54771,185.20687c.50247-2.14911,1.23512-5.00191,1.64161-7.17118.32408-2.29295.81522-5.34416,1.03278-7.64957.31819-3.58685-2.38516-7.25261-8.46716-10.70807-20.17343-11.46143-69.87927-16.26772-111.021-10.73521-30.012,4.03586-47.17624,12.45867-46.43535,21.16944.42943,3.43587,1.09814,8.00835,1.76544,11.406l.85229,3.416c-2.42211-8.85909,14.40363-17.61114,44.86454-21.70745,39.93385-5.37006,88.18053-.70481,107.76182,10.4201,6.56432,3.72943,9.07388,7.71156,8.005,11.55993"/>
              <path class="cls-17" d="M643.309,211.012c1.4187-2.17556,3.32169-5.072,4.62537-7.31837l2.77962-5.40546c1.877-3.97934-.30448-8.15807-7.14835-12.04631-18.51032-10.51651-64.11815-14.92654-101.868-9.85-30.06772,4.04328-46.0812,12.88545-42.00014,21.63078,1.34357,2.624,3.1619,6.11222,4.65854,8.652l2.6944,4.08932c-5.91422-8.36375,8.74645-17.07956,37.57807-20.95662,34.42415-4.62929,76.01416-.60769,92.8938,8.98237,6.95469,3.95121,8.62945,8.23139,5.78673,12.22234"/>
              <path class="cls-18" d="M622.62887,231.48648c2.53153-1.8834,5.84483-4.48125,8.25336-6.51968l3.42649-3.25467c3.89454-3.87831,2.86945-8.16142-4.02593-12.079-14.92416-8.47892-51.69584-12.03456-82.13184-7.94175-26.95186,3.62449-39.89789,12.03106-32.14561,19.79594,1.87276,1.76306,4.36973,4.11731,6.33023,5.78214,1.5967,1.22616,3.7027,2.89309,5.34724,4.05433-11.01282-8.51781,4.93629-15.301,24.4153-17.99887,38.97734-5.39846,83.18855,4.46753,72.77853,16.24085a16.486,16.486,0,0,1-2.24777,1.92076"/>
              <g>
                <path class="cls-19" d="M550.42838,241.83773a62.42431,62.42431,0,0,1-11.4764-3.96688q.93043.5285,2.0285,1.01782l3.91735,1.65657c4.5946,1.68513,4.774,1.75089,7.638,2.57785,3.79364,1.00466,3.79364,1.00466,5.82941,1.42934l1.36931.27145a31.58614,31.58614,0,0,1-9.30615-2.98615"/>
                <path class="cls-20" d="M550.42838,241.83773c-6.69025-3.80107-1.05308-8.36991,12.59118-10.20475s30.12872-.24081,36.81911,3.56026c6.35206,3.60895,1.59152,7.90984-10.58365,9.90587a85.46692,85.46692,0,0,0,16.6823-4.66707l3.315-1.40079c7.18937-3.16371,8.46674-7.26744,2.08321-10.89417-9.80107-5.56846-33.95-7.90354-53.93814-5.21557-19.98806,2.68782-28.24631,9.38087-18.44538,14.94934a62.42431,62.42431,0,0,0,11.4764,3.96688"/>
              </g>
              <path class="cls-21" d="M575.1252,242.98708a69.67172,69.67172,0,0,1-13.03167.541c3.52962,2.00541,12.22654,2.84636,19.425,1.87836s10.17257-3.37836,6.64293-5.38377-12.22667-2.84636-19.42511-1.87835-10.17257,3.37849-6.64284,5.38376a69.67172,69.67172,0,0,0,13.03167-.541"/>
            </g>
            <path class="cls-1" d="M586.3794,245.541a83.08612,83.08612,0,0,1-27.93022-.97122c-1.49033-.28867-4.30886-.97808-5.91337-1.44669-2.10226-.61371-4.8778-1.53064-6.92716-2.30261-1.5098-.56866-3.49939-1.39366-4.9584-2.08237-1.96525-.92757-4.54239-2.2563-6.44776-3.30126-20.332-11.55154-33.73194-34.38064-33.67989-62.37606.082-44.18115,33.61763-84.49126,74.8998-90.04266-41.28217,5.5514-74.8178,45.86151-74.8998,90.04266-.05205,27.99542,13.3479,50.82452,33.67989,62.37592-1.42234-.87188-3.36674-1.96077-4.74109-2.90667-2.18885-1.50644-5.05158-3.59986-7.12583-5.26063a103.71029,103.71029,0,0,1-8.76493-8.35243,55.86551,55.86551,0,0,1-5.0653-6.14426c-1.262-1.81763-2.97551-4.22239-4.14934-6.09809a62.4852,62.4852,0,0,1-3.13713-5.54594c-.9333-1.95363-2.19669-4.55205-3.02686-6.55172-.74678-1.7986-1.63153-4.24338-2.2251-6.09823a83.1782,83.1782,0,0,1-3.11166-13.488,81.79254,81.79254,0,0,1-.85424-12.1195,115.06964,115.06964,0,0,1,1.10779-13.45522,54.05022,54.05022,0,0,1,1.47817-7.05671c.55886-1.88,1.22645-4.41185,1.86676-6.26572a66.5943,66.5943,0,0,1,2.58189-6.61623c3.771-7.78377,3.771-7.78377,6.41641-11.85014a80.49568,80.49568,0,0,1,8.19655-10.6097c1.24282-1.3339,2.91884-3.09822,4.24939-4.34482,1.59921-1.49832,3.79506-3.43139,5.50844-4.79776,1.33489-1.06441,3.15238-2.43974,4.56815-3.39417,1.901-1.28171,4.50575-2.8861,6.4791-4.05363a96.38154,96.38154,0,0,1,9.22374-4.47692c1.822-.71418,4.26746-1.62957,6.13041-2.22845,1.806-.58055,4.24631-1.25639,6.09081-1.70023A81.40362,81.40362,0,0,1,568.42306,80.002a83.4172,83.4172,0,0,1,21.30391.98087c2.01017.37682,3.46245.649,5.20984,1.0896,3.50291.88349,5.46772,1.50084,6.49911,1.86339a83.41822,83.41822,0,0,1,8.45989,3.33092c1.95436.94967,4.54757,2.24594,6.44706,3.301,1.47439.81884,3.41418,1.96707,4.79134,2.94067,1.3984.98843,3.30446,2.25126,4.65264,3.30728,1.8455,1.44571,4.26366,3.43307,5.98449,5.02528a83.45851,83.45851,0,0,1,16.72455,21.46734,111.7174,111.7174,0,0,1,5.24678,11.74869,69.98967,69.98967,0,0,1,2.1368,6.95471c.50614,1.9167.9834,4.51987,1.40415,6.45728a58.76437,58.76437,0,0,1,.9518,7.27514c.42465,5.66865.42465,5.66865.02446,14.1999a55.22118,55.22118,0,0,1-1.07056,8.0916,82.986,82.986,0,0,1-3.58895,13.2855,81.25094,81.25094,0,0,1-5.666,12.37248c-1.89948,3.25522-4.73885,7.4138-6.95918,10.45942a69.983,69.983,0,0,1-4.63643,5.44645,84.44642,84.44642,0,0,1-14.41791,12.37206A83.23072,83.23072,0,0,1,586.3794,245.541Z"/>
            <g>
              <ellipse class="cls-22" cx="575.42009" cy="84.22925" rx="4.03102" ry="14.51349" transform="translate(490.1209 659.49171) rotate(-89.89345)"/>
              <path class="cls-23" d="M539.216,97.86561h0c13.29892,7.35461,48.45069,8.586,67.16486,2.3527,4.18223-1.3931,16.77146-6.45489,3.18151-13.10359l-3.914-1.655c-2.857-1.10667-3.30937-1.2459-7.6374-2.57771-2.05243-.57957-2.26567-.62756-5.82915-1.4292l-1.37561-.27271c9.87931,1.95392,11.81082,4.55163,12.08284,5.92626,1.4604,7.3805-36.40578,11.81991-52.17647,3.70382-.28588-.16259-.65892-.39445-.9263-.58573-2.82735-2.02318-3.84727-6.00951,8.828-8.78661a82.93368,82.93368,0,0,0-14.93689,4.51245L541.24,86.99872C534.10345,90.15838,532.85054,94.24924,539.216,97.86561Z"/>
              <path class="cls-24" d="M558.61429,81.43781c.86-.179,1.7653-.35877,2.73624-.54123Q559.88638,81.15811,558.61429,81.43781Z"/>
              <path class="cls-25" d="M623.85448,95.42769c-.33232-.27006-.68465-.53941-1.07924-.80653C623.15765,94.90689,623.51446,95.17358,623.85448,95.42769Z"/>
              <path class="cls-26" d="M526.89643,95.28776c.34534-.26236.6834-.517,1.00858-.75881C527.54095,94.77885,527.20875,95.0324,526.89643,95.28776Z"/>
              <path class="cls-27" d="M520.26915,116.36808c14.92291,8.47821,51.69164,12.03358,82.12526,7.941,26.93507-3.62211,39.88068-12.02071,32.15584-19.78153l-2.77891-2.6867v.00014a69.737,69.737,0,0,0-7.91686-6.41334c8.23573,6.69277-2.49823,14.169-25.91709,17.31828-25.39465,3.41488-56.07538.44832-68.52734-6.62631-6.20415-3.52486-6.70632-7.40373-2.51362-10.8319-2.55837,1.94315-5.58568,4.37855-7.868,6.3298l-2.79025,2.6779C512.35035,108.172,513.37755,112.45254,520.26915,116.36808Z"/>
              <path class="cls-28" d="M506.98324,139.76471c18.51,10.51637,64.117,14.92626,101.86607,9.85,30.06757-4.04343,46.08077-12.88559,41.99929-21.63092l-2.35271-4.67547c-1.34356-2.5097-3.45363-5.67467-4.99939-8.065A9.457,9.457,0,0,1,644.68,117.8657c3.68509,18.6221-91.85791,29.82354-131.65044,9.34547q-.86512,1.50678-1.67728,3.04673.81185-1.53953,1.67728-3.04659c-9.56949-5.572-7.10987-9.8958-5.78843-12.21884-1.60129,2.3583-3.57132,5.612-5.03549,8.05774l-2.37118,4.66987C497.95861,131.69886,500.14033,135.877,506.98324,139.76471Z"/>
              <path class="cls-29" d="M500.79308,166.3315c20.17332,11.46128,69.87886,16.26758,111.02027,10.73507,30.00936-4.03559,47.17317-12.45727,46.4352-21.16721-.17491-2.0492-.5979-4.76152-.85676-6.80191-.3715-2.43652-1.2098-5.62234-1.76178-8.02444,2.42264,8.85924-14.40282,17.61143-44.86387,21.7076-39.93315,5.37006-88.179.70495-107.76014-10.41982h0c-6.5639-3.72929-9.07346-7.711-8.005-11.55923-.63356,2.38349-1.2785,5.61087-1.79272,8.023-.3466,2.02738-.61959,4.759-.88236,6.799C492.00787,159.21042,494.71122,162.876,500.79308,166.3315Z"/>
              <path class="cls-30" d="M611.78872,190.44833c-41.14169,5.53251-90.84737.72621-111.021-10.73521-5.45737-3.10047-8.1943-6.37052-8.46926-9.60084.39265,3.44035,1.13508,8.00135,1.76558,11.406l.85229,3.416c.75321,2.75513,3.36786,5.52062,8.013,8.15961,19.58115,11.12491,67.82783,15.79016,107.76168,10.42,26.54664-3.56991,42.73712-10.67574,44.85671-18.307.57789-2.13,1.159-5.01758,1.64161-7.17118.45433-2.2707.73712-5.35284,1.03278-7.64957C657.485,178.69684,640.527,186.58373,611.78872,190.44833Z"/>
              <path class="cls-31" d="M506.86138,204.62529q1.27274,2.90778,2.77652,5.64375-1.502-2.7338-2.77652-5.64375c-4.80224-2.74814-5.9495-4.62034-7.16392-6.60266,1.29685,2.64739,3.20723,6.08605,4.65854,8.652l2.6944,4.08932a17.71872,17.71872,0,0,0,5.811,4.78951c16.87959,9.59006,58.46946,13.61166,92.89364,8.98237,20.2406-2.72183,33.49713-7.82841,37.554-13.52365,1.4698-2.14156,3.2688-5.10364,4.62537-7.31865v.00014l2.77962-5.4056C639.00434,219.30136,543.55077,223.50639,506.86138,204.62529Z"/>
              <path class="cls-32" d="M520.064,224.45481a18.94722,18.94722,0,0,1-4.05868-2.9674c1.83554,1.80182,4.40513,4.07645,6.33023,5.782,1.56212,1.2701,3.73544,2.84818,5.3471,4.05433l1.48867.92617c12.45321,7.07519,43.13688,10.04216,68.53389,6.62686,11.78479-1.58465,20.36054-4.26534,24.9235-7.39029,2.54147-1.87024,5.83447-4.49371,8.2535-6.51968l3.42649-3.25467c-4.5347,4.51567-15.73908,8.4827-32.11286,10.68442C571.75986,236.48951,534.98817,232.93387,520.064,224.45481Z"/>
              <path class="cls-33" d="M540.98048,238.88867l3.91735,1.65643c2.857,1.107,3.30951,1.246,7.63782,2.57813,2.05229.57943,2.26555.62742,5.82957,1.4292l1.36945.27145a92.1984,92.1984,0,0,0,27.51282.574q1.03475-.13917,2.00753-.29875a85.778,85.778,0,0,0,16.68244-4.66707l3.31483-1.40079a63.05205,63.05205,0,0,1-16.36217,4.055C574.16687,245.60411,551.79293,243.71455,540.98048,238.88867Z"/>
            </g>
          </g>
          <g>
            <path class="cls-1" d="M-48.4,344.03025A64.58655,64.58655,0,0,0-55.95027,384.953,64.58655,64.58655,0,0,1-48.4,344.03025a85.67476,85.67476,0,0,1,4.70877-7.36343c1.33628-1.76124,3.12117-4.10961,4.54743-5.79878,1.17034-1.386,2.78717-3.19268,4.10079-4.44375,1.55793-1.48349,3.63107-3.469,5.26371-4.87,1.423-1.221,3.39683-2.76044,4.91362-3.86277a79.30569,79.30569,0,0,1,11.47794-7.004c1.91879-.90811,4.48153-2.115,6.44916-2.9117,1.80657-.73167,4.2666-1.5785,6.12117-2.17892a79.50717,79.50717,0,0,1,11.52411-2.7098,98.4839,98.4839,0,0,1,13.45886-1.05839A84.031,84.031,0,0,1,38.21221,303.036a80.04184,80.04184,0,0,1,13.33824,3.45546c2.04725.71474,4.73032,1.80238,6.7111,2.685,1.75326.78134,4.00858,1.99757,5.72505,2.85685a68.6298,68.6298,0,0,1,6.27789,3.811c1.56842,1.03461,3.55214,2.57,5.07132,3.676a69.71533,69.71533,0,0,1,5.82858,5.01716c1.32831,1.24226,3.0459,2.95984,4.25485,4.31866,1.69674,1.9069,3.85746,4.54,5.42155,6.557a82.55985,82.55985,0,0,1,6.11236,9.484,68.35975,68.35975,0,0,1,4.13339,8.60793c.67682,1.74011,1.56255,4.06889,2.13694,5.84552.58475,1.80895,1.2736,4.25121,1.72444,6.09809a82.64456,82.64456,0,0,1,2.25952,23.90624c-.05346,1.19426-.26334,3.95513-.503,5.82327-.38521,3.00378-.49743,3.58811-1.12038,6.8313a84.87705,84.87705,0,0,1-2.71875,9.95443,83.25927,83.25927,0,0,1-4.13773,9.94869A81.54784,81.54784,0,0,1,92.405,432.61811a85.12,85.12,0,0,1-8.18521,10.02033,83.427,83.427,0,0,1-21.13111,16.02915A112.51926,112.51926,0,0,1,51.28305,463.815a69.59242,69.59242,0,0,1-6.86879,2.04836c-1.923.49058-4.53218.95052-6.4749,1.356a56.83541,56.83541,0,0,1-7.247.89342,78.93008,78.93008,0,0,1-8.30387.24529c-2.03116-.11054-4.74543-.19477-6.76875-.40564a69.40379,69.40379,0,0,1-7.269-1.05686,82.74844,82.74844,0,0,1-25.92467-9.656c-3.22822-1.93544-7.35182-4.81525-10.35769-7.08078-1.85023-1.39463-4.07939-3.54795-5.80075-5.09874A55.499,55.499,0,0,1-37.93,440.71c-1.691-1.94272-3.818-4.64174-5.399-6.67486a57.34907,57.34907,0,0,1-3.71137-5.55545c-1.45817-2.48116-3.26894-5.86959-4.52519-8.45891a81.4346,81.4346,0,0,1-4.55107-12.34323,84.46518,84.46518,0,0,1-2.85266-15.75868,83.66044,83.66044,0,0,1,.33316-16.89444,84.227,84.227,0,0,1,3.83942-16.78657c.57271-1.73409,1.42779-4.01935,2.17751-5.6846C-51.44789,349.95175-49.73688,346.55073-48.4,344.03025Z"/>
            <g class="cls-11">
              <path class="cls-34" d="M99.92209,419.39013l1.65489-3.914c1.68513-4.59445,1.75089-4.7737,2.57785-7.63741,1.00467-3.79366,1.00467-3.79366,1.42919-5.82915l.27272-1.37561a91.4055,91.4055,0,0,0,.28334-29.45568,85.09,85.09,0,0,0-5.05354-17.67313l-1.04846-2.43736c6.94771,17.08348,6.88908,51.56389-.116,68.32233"/>
              <path class="cls-35" d="M82.50921,444.378l2.68657-2.77892c5.0201-5.83363,5.0201-5.83363,7.21987-8.99608q.437-.64561.86809-1.40331c7.07449-12.4521,10.04119-43.13283,6.62617-68.52746-1.58675-11.79935-4.27206-20.38153-7.40205-24.93946-2.03536-2.73344-4.8729-6.2874-7.08862-8.87658l-2.67789-2.79025c4.51763,4.53078,8.48647,15.73684,10.689,32.11566,4.09253,30.43363.53717,67.20237-7.94119,82.12527a18.91443,18.91443,0,0,1-2.98,4.07113"/>
              <path class="cls-36" d="M59.053,460.67622l4.67546-2.35256c2.44744-1.45383,5.70448-3.40845,8.065-4.9994a17.70394,17.70394,0,0,0,4.79482-5.81446c9.58937-16.87849,13.61054-58.46556,8.98168-92.88748-2.72212-20.24258-7.82953-33.49939-13.52561-37.55344-2.38783-1.55695-5.58512-3.61735-8.05774-5.0355l-4.67-2.37131c6.78386,3.19813,12.98871,18.19071,16.18838,41.98446,5.07635,37.74906.66632,83.35605-9.8499,101.86607-2.14,3.76665-4.36791,6.1209-6.6021,7.16362"/>
              <path class="cls-37" d="M31.13744,468.07645c2.04081-.25522,4.77328-.518,6.80192-.857,2.41231-.50513,5.6401-1.13745,8.02429-1.7618,2.755-.75336,5.5202-3.368,8.15905-8.01255,11.12476-19.581,15.78987-67.82685,10.41982-107.76028-3.56992-26.54678-10.676-42.73712-18.30741-44.85615-2.4014-.56138-5.59646-1.351-8.0229-1.79259-2.03941-.26669-4.75033-.69976-6.79911-.88237,8.31072.737,16.19775,17.69482,20.06235,46.43311,5.53251,41.14141.72621,90.847-10.73507,111.02027-3.10131,5.45863-6.37192,8.19557-9.60294,8.4694"/>
              <path class="cls-38" d="M1.82994,465.37547c2.149.50233,5.00191,1.23512,7.17117,1.64161,2.29282.32406,5.344.8152,7.64958,1.03279,3.58685.31819,7.25261-2.38531,10.70793-8.46717,11.46142-20.17345,16.26772-69.87927,10.73521-111.021-4.03587-30.012-12.45853-47.17626-21.16944-46.43535-3.43573.42943-8.00821,1.09813-11.40588,1.76544l-3.41614.85228c8.85924-2.4221,17.61129,14.40364,21.70746,44.86455,5.3702,39.93385.70495,88.18053-10.42,107.76182-3.72957,6.56432-7.71156,9.07388-11.55993,8.005"/>
              <path class="cls-39" d="M-23.97537,453.13676c2.17556,1.41871,5.072,3.32169,7.31851,4.62537l5.40546,2.77962c3.97934,1.877,8.15793-.30448,12.04618-7.14836,10.5165-18.51031,14.92653-64.11814,9.85018-101.868C6.60153,321.45764-2.24049,305.44416-10.986,309.52522c-2.62388,1.34357-6.11208,3.1619-8.65187,4.65854l-4.08946,2.6944c8.3639-5.91437,17.07957,8.74645,20.95677,37.57807,4.62914,34.42415.60769,76.01417-8.98237,92.89378-3.95136,6.95471-8.23153,8.62948-12.22248,5.78675"/>
            </g>
            <path class="cls-1" d="M-58.50419,396.20716a83.08226,83.08226,0,0,1,.97122-27.93022c.28853-1.49035.97808-4.30886,1.44655-5.91339.61386-2.10224,1.53065-4.8778,2.30261-6.92714.56866-1.5098,1.3938-3.4994,2.08237-4.9584.92771-1.96525,2.2563-4.54239,3.3014-6.44776,11.55154-20.332,34.3805-33.73194,62.37606-33.67989,44.181.082,84.49126,33.61763,90.04266,74.8998C98.46728,343.968,58.157,310.43236,13.976,310.35036c-27.99556-.05205-50.82452,13.3479-62.37606,33.67989.872-1.42234,1.96078-3.36674,2.90667-4.74109,1.50657-2.18885,3.59986-5.05158,5.26063-7.12584a103.73867,103.73867,0,0,1,8.35256-8.76492,55.85139,55.85139,0,0,1,6.14427-5.0653c1.81763-1.262,4.22224-2.97551,6.09808-4.14934a62.4457,62.4457,0,0,1,5.546-3.13713c1.95363-.9333,4.552-2.19669,6.55172-3.02686,1.7986-.74679,4.24337-1.63153,6.09822-2.2251A83.175,83.175,0,0,1,12.046,302.683a81.78845,81.78845,0,0,1,12.11949-.85424,115.04414,115.04414,0,0,1,13.45522,1.10779,54.05519,54.05519,0,0,1,7.05672,1.47817c1.88.55886,4.4117,1.22644,6.26557,1.86674a66.595,66.595,0,0,1,6.61637,2.58191c7.78363,3.771,7.78363,3.771,11.85,6.41641a80.47435,80.47435,0,0,1,10.60971,8.19655c1.334,1.24282,3.09836,2.91884,4.34495,4.24939,1.49833,1.59921,3.43139,3.79506,4.79762,5.50844,1.06442,1.33475,2.43988,3.15238,3.39431,4.56815,1.28158,1.901,2.8861,4.50573,4.05364,6.4791a96.38185,96.38185,0,0,1,4.47691,9.22374c.714,1.822,1.62943,4.26744,2.22831,6.13041.58069,1.806,1.25639,4.24631,1.70024,6.09081a81.4084,81.4084,0,0,1,2.01968,12.52444,85.99948,85.99948,0,0,1,.17281,11.10307,85.22355,85.22355,0,0,1-1.15369,10.20084c-.37682,2.01017-.649,3.46245-1.08974,5.20984-.88335,3.50289-1.50084,5.46772-1.86324,6.49911A83.48643,83.48643,0,0,1,99.77,419.72357c-.94967,1.95434-2.24608,4.54757-3.301,6.44706-.81883,1.47439-1.96721,3.41418-2.94067,4.79132-.98857,1.39842-2.25126,3.30448-3.30741,4.65266-1.44571,1.84548-3.43293,4.26367-5.02514,5.98447a84.49694,84.49694,0,0,1-10.10443,9.28754,83.79051,83.79051,0,0,1-11.36292,7.437,111.7376,111.7376,0,0,1-11.74869,5.24678,69.99334,69.99334,0,0,1-6.95471,2.1368c-1.91683.50611-4.52.98339-6.45727,1.40415a58.76621,58.76621,0,0,1-7.27528.95177c-5.66852.42467-5.66852.42467-14.19976.02449a55.22035,55.22035,0,0,1-8.09161-1.07057,82.98695,82.98695,0,0,1-13.28549-3.589,81.24984,81.24984,0,0,1-12.37248-5.666c-3.25522-1.89948-7.41394-4.73885-10.45942-6.95918a69.95479,69.95479,0,0,1-5.44645-4.63643,84.43955,84.43955,0,0,1-12.37206-14.41791A83.23072,83.23072,0,0,1-58.50419,396.20716Z"/>
            <g>
              <ellipse class="cls-40" cx="102.80741" cy="385.24785" rx="14.51349" ry="4.03102" transform="translate(-282.63096 487.33866) rotate(-89.89345)"/>
              <path class="cls-41" d="M89.17106,349.04378h0c-7.35462,13.29892-8.58582,48.45069-2.35257,67.16486,1.3931,4.18223,6.4549,16.77146,13.1036,3.18149l1.65489-3.914c1.10681-2.857,1.246-3.30952,2.5777-7.63741.57957-2.05243.62757-2.26567,1.42934-5.82915l.27272-1.37561c-1.95392,9.87929-4.55178,11.81082-5.92625,12.08284-7.38051,1.4604-11.81993-36.40578-3.704-52.17649.1626-.28586.39459-.6589.58587-.9263,2.02318-2.82733,6.00952-3.84725,8.78661,8.828a82.93139,82.93139,0,0,0-4.51259-14.93689l-1.04832-2.43736C96.87843,343.93119,92.78757,342.67829,89.17106,349.04378Z"/>
              <path class="cls-42" d="M105.599,368.44205c.17883.86.35877,1.7653.54109,2.73624Q105.87878,369.71411,105.599,368.44205Z"/>
              <path class="cls-43" d="M91.60912,433.68224c.27006-.33232.53927-.68465.80653-1.07924C92.12992,432.98541,91.86322,433.34222,91.60912,433.68224Z"/>
              <path class="cls-44" d="M91.74905,336.72419c.26221.34534.51688.6834.75881,1.00858C92.25781,337.36869,92.00441,337.0365,91.74905,336.72419Z"/>
              <path class="cls-45" d="M70.66873,330.09691c-8.47836,14.9229-12.03372,51.69164-7.94118,82.12526,3.6221,26.93507,12.02084,39.88068,19.78166,32.15583l2.68657-2.77892h0a69.75027,69.75027,0,0,0,6.41334-7.91684C84.91635,441.918,77.44,431.184,74.29084,407.76513c-3.415-25.39463-.44832-56.07536,6.6263-68.52732,3.52486-6.20415,7.40374-6.70634,10.83191-2.51362-1.94329-2.55839-4.37869-5.58568-6.32981-7.868l-2.67789-2.79025C78.86472,322.17811,74.58412,323.2053,70.66873,330.09691Z"/>
              <path class="cls-46" d="M47.27195,316.811c-10.51623,18.51-14.92625,64.117-9.8499,101.86608,4.04328,30.06758,12.88558,46.08077,21.63092,41.99929l4.67546-2.3527c2.50956-1.34357,5.67454-3.45364,8.065-4.9994a9.45786,9.45786,0,0,1-2.62248,1.18349c-18.6221,3.68507-29.82355-91.85791-9.34547-131.65044q-1.50659-.86516-3.04659-1.67729,1.53951.81186,3.04659,1.67729c5.57182-9.5695,9.8958-7.10989,12.2187-5.78843-2.35817-1.60131-5.61184-3.57132-8.0576-5.0355l-4.67-2.37117C55.33781,307.78637,51.15978,309.96809,47.27195,316.811Z"/>
              <path class="cls-47" d="M20.70531,310.62084C9.244,330.79415,4.43773,380.4997,9.97024,421.64111c4.03544,30.00937,12.45713,47.17317,21.1672,46.4352,2.04921-.1749,4.76152-.5979,6.80192-.85676,2.43651-.3715,5.62233-1.2098,8.02429-1.7618-8.85909,2.42267-17.61128-14.4028-21.70746-44.86385-5.37019-39.93315-.70494-88.179,10.41982-107.76014h0c3.72915-6.5639,7.711-9.07346,11.55924-8.005-2.38363-.63358-5.611-1.2785-8.023-1.79273-2.02738-.34659-4.75914-.61959-6.79911-.88237C27.82639,301.83562,24.16062,304.539,20.70531,310.62084Z"/>
              <path class="cls-48" d="M-3.41152,421.61648c-5.53265-41.14169-.72636-90.84737,10.73507-111.021,3.1006-5.45737,6.37052-8.19445,9.60084-8.46926-3.44021.39263-8.00122,1.13507-11.40588,1.76558l-3.41614.85228c-2.75513.75322-5.52047,3.36787-8.15946,8.01283-11.12491,19.58129-15.7903,67.828-10.4201,107.76182,3.56991,26.54664,10.67589,42.73712,18.30713,44.85671,2.13.57789,5.01758,1.159,7.17117,1.64161,2.27071.45433,5.35285.73712,7.64944,1.03279C8.34,467.31274.45307,450.35477-3.41152,421.61648Z"/>
            </g>
          </g>
          <circle class="cls-49" cx="711.17056" cy="399.76462" r="4.31432"/>
          <path class="cls-49" d="M217.11473,99.69961a4.31438,4.31438,0,1,1-4.31445-4.31432A4.31436,4.31436,0,0,1,217.11473,99.69961Z"/>
          <circle class="cls-49" cx="128.00846" cy="461.30448" r="7.34608"/>
          <path class="cls-50" d="M484.49151,271.74454a6.6091,6.6091,0,1,1,6.60908-6.6091A6.61656,6.61656,0,0,1,484.49151,271.74454Zm0-11.10336a4.4942,4.4942,0,1,0,4.49411,4.49426A4.49915,4.49915,0,0,0,484.49151,260.64118Z"/>
          <path class="cls-51" d="M117.94041,172.76946a4.49419,4.49419,0,1,1,4.49412-4.49426A4.49943,4.49943,0,0,1,117.94041,172.76946Zm0-7.55023a3.056,3.056,0,1,0,3.056,3.056A3.05947,3.05947,0,0,0,117.94041,165.21923Z"/>
          <path class="cls-52" d="M719.13357,476.7952a8.74534,8.74534,0,1,1,8.74533-8.74533A8.75526,8.75526,0,0,1,719.13357,476.7952Zm0-14.69216a5.94683,5.94683,0,1,0,5.94682,5.94683A5.95358,5.95358,0,0,0,719.13357,462.103Z"/>
          <path class="cls-53" d="M471.45717,403.55478a4.3421,4.3421,0,1,1,4.342-4.34217A4.347,4.347,0,0,1,471.45717,403.55478Zm0-7.29473a2.95264,2.95264,0,1,0,2.95257,2.95256A2.95593,2.95593,0,0,0,471.45717,396.26005Z"/>
          <g class="cls-54">
            <line class="cls-55" x1="43.28604" y1="245.86059" x2="35.00708" y2="254.13941"/>
            <line class="cls-55" x1="35.00708" y1="245.86059" x2="43.28604" y2="254.13941"/>
          </g>
          <g class="cls-54">
            <line class="cls-55" x1="156.97832" y1="356.22894" x2="151.09404" y2="362.11323"/>
            <line class="cls-55" x1="151.09404" y1="356.22894" x2="156.97832" y2="362.11323"/>
          </g>
          <g class="cls-54">
            <line class="cls-55" x1="406.41525" y1="125.05702" x2="400.53097" y2="130.94144"/>
            <line class="cls-55" x1="400.53097" y1="125.05702" x2="406.41525" y2="130.94144"/>
          </g>
          <g class="cls-54">
            <line class="cls-55" x1="731.56873" y1="51.00643" x2="725.68445" y2="56.89071"/>
            <line class="cls-55" x1="725.68445" y1="51.00643" x2="731.56873" y2="56.89071"/>
          </g>
          <g class="cls-54">
            <line class="cls-55" x1="705.04812" y1="170.11228" x2="700.31193" y2="174.84847"/>
            <line class="cls-55" x1="700.31193" y1="170.11228" x2="705.04812" y2="174.84847"/>
          </g>
          <g class="cls-54">
            <line class="cls-55" x1="587.44619" y1="323.16612" x2="579.16722" y2="331.44495"/>
            <line class="cls-55" x1="579.16722" y1="323.16612" x2="587.44619" y2="331.44495"/>
          </g>
          <g class="cls-56">
            <path class="cls-6" d="M733.0493,280.0624c.36-1.72584.68729-3.4861.98016-5.26469,2.08209-12.62029,2.44044-26.27518.56558-36.91161l.00028.00014c-2.39091-12.45447-5.82943-14.8465-8.87785-15.54374-1.83176-.19072-4.24072-.32673-6.15825-.45448,4.48964.45685,8.72714,5.79934,11.50676,15.7374l-.00056-.00014a91.60492,91.60492,0,0,1,2.94039,24.08815,115.757,115.757,0,0,1-.73475,13.0388c-.19631,1.755-.43643,3.48974-.71278,5.19375-.39109,2.38769-.85662,4.71353-1.39855,6.94674.06914.04183.13824.08549.20919.12733C731.98907,284.7832,732.551,282.45373,733.0493,280.0624Z"/>
            <path class="cls-6" d="M727.79145,284.08176l-.03065-.0417c.01192.01945.02435.03862.0361.05821Z"/>
            <path class="cls-6" d="M783.46984,248.216c-1.29165-.87551-4.31726-2.92668-15.66366,4.59431-8.523,5.75961-18.07934,14.90625-26.13554,24.56376q-2.02437,2.42881-3.91175,4.88521c-1.50224,1.95532-2.92346,3.91161-4.24981,5.84692-.07277-.03372-.14539-.06423-.216-.09473,1.26954-1.986,2.6222-4.00872,4.0423-6.03778q1.7511-2.5046,3.62939-5.01156c7.56534-10.12416,16.38847-19.964,24.07919-26.47052,6.94575-5.87547,11.62024-7.895,13.5249-6.39165l.39823.315C780.31872,245.55471,782.15286,247.03708,783.46984,248.216Z"/>
            <path class="cls-6" d="M738.25142,238.41138l.00056.00014c.70733,10.46362-.68563,23.95858-3.43152,36.47532-.39459,1.79664-.81647,3.57342-1.26381,5.31912-.611,2.38237-1.27122,4.70821-1.97309,6.93946.06717.0382.13629.07822.20723.11642.78023-2.22034,1.5312-4.52994,2.2514-6.89762q.802-2.63514,1.54576-5.35186c3.38787-12.3715,5.77919-25.63937,6.19379-35.85406h-.00014c.36845-9.07318-.89118-13.98386-3.21436-14.54789l-.70957-.171-5.35984-1.11269C735.46257,224.02692,737.62274,229.12748,738.25142,238.41138Z"/>
            <path class="cls-6" d="M719.55922,221.888q-.21242-.02161-.42549-.02883C719.27225,221.86885,719.41468,221.87836,719.55922,221.888Z"/>
            <path class="cls-6" d="M692.08222,225.039c-.31777.07206-.63316.15378-.9452.24767C691.43856,225.20817,691.75593,225.12491,692.08222,225.039Z"/>
            <path class="cls-6" d="M678.677,230.27151c-.38214.168-.75881.34813-1.12836.54347C677.90554,230.64343,678.28446,230.46054,678.677,230.27151Z"/>
            <path class="cls-6" d="M706.88618,244.723l.0298-.02449-.0298.02449c10.59655,8.37607,18.05974,19.94006,21.11305,31.204q.54278,2.00484.89833,3.98983a40.42667,40.42667,0,0,1,.61833,5.81558c.06187.05093.12537.1.189.151a43.28811,43.28811,0,0,0-.43278-6.05933q-.289-2.07306-.76917-4.18083a64.20513,64.20513,0,0,0-19.411-32.58246c-.10774.07248-.213.1472-.31931.22094.10621-.07374.21129-.14832.319-.22094-13.41016-12.055-28.49216-14.83376-38.11314-8.31744-1.7254,1.19412-3.93288,2.91688-5.59574,4.19678l-.33248.27859C674.808,230.98471,691.705,232.723,706.88618,244.723Z"/>
            <path class="cls-6" d="M703.18543,248.64552h0c11.70042,7.09953,20.17654,17.48689,23.939,27.97066q.64394,1.7895,1.10026,3.57887a34.30781,34.30781,0,0,1,.92194,5.23013q.08731.07366.18009.1528a37.334,37.334,0,0,0-.78736-5.53377q-.40929-1.885-1.0111-3.78442c-3.43517-10.88563-11.45485-21.87677-22.65518-29.62919-.22861.24305-.4493.49156-.66576.74258.21632-.25116.43671-.49995.66534-.74342-17.08894-11.82873-35.95325-12.23493-45.53478-1.99352-1.15746,1.24268-2.59016,2.9986-3.69387,4.28927l-1.21611,1.58886C663.50541,238.26992,684.26293,237.16339,703.18543,248.64552Z"/>
            <path class="cls-6" d="M647.08069,263.17341q-.25858.534-.48706,1.07575Z"/>
            <path class="cls-6" d="M642.2625,279.32374l.30056-1.49273Q642.38528,278.57528,642.2625,279.32374Z"/>
            <path class="cls-6" d="M699.12662,258.29561l-.00014.00084c12.79883,4.01712,22.32607,11.54944,26.907,20.12015a28.0385,28.0385,0,0,1,1.27287,2.72043,24.9346,24.9346,0,0,1,1.1639,3.66254c.05276.05094.10369.10005.1563.14916A26.92643,26.92643,0,0,0,727.47,280.8534a30.52156,30.52156,0,0,0-1.25667-2.92962V277.922c-4.459-9.07807-13.85163-17.36137-26.51767-22.18782-.03275.11474-.06227.23088-.09319.34632.03092-.11572.06044-.23186.093-.34688-22.53134-8.58624-46.87164-2.99314-54.38115,12.47938a22.20047,22.20047,0,0,0-1.384,3.61959l-.68508,2.61129-.68227,3.38717a21.97742,21.97742,0,0,1,1.61362-4.49384C651.68633,257.86464,676.28115,251.12486,699.12662,258.29561Z"/>
            <path class="cls-6" d="M698.87433,263.80168v-.00028c12.77309,2.29491,22.3219,8.22691,26.98992,15.7027a22.33655,22.33655,0,0,1,1.262,2.30765,20.5682,20.5682,0,0,1,1.04746,2.68055l.00182.00182c.04548.04911.09277.1.14009.149a22.51763,22.51763,0,0,0-1.12754-3.18414,25.59375,25.59375,0,0,0-1.27472-2.50775c-4.65546-8.0215-14.23545-14.75009-27.0687-17.9033h0c-23.00135-5.65005-47.72224,2.32136-55.23175,17.79388a21.13018,21.13018,0,0,0-2.15875,8.31577l-.04058,1.119c-.03864,1.89711.06477,4.42654.1136,6.32448C640.896,276.27308,665.80678,258.82761,698.87433,263.80168Z"/>
            <polygon class="cls-6" points="641.527 294.605 641.527 294.605 641.527 294.601 641.527 294.605"/>
            <path class="cls-6" d="M643.78727,308.30046c.06842.33008.14594.6575.23465.98129C643.94734,308.969,643.86842,308.63963,643.78727,308.30046Z"/>
            <polygon class="cls-6" points="649.229 322.906 649.229 322.905 649.229 322.906 649.229 322.906"/>
            <path class="cls-6" d="M705.78259,281.58885c10.94916-3.25509,18.72579-2.05928,21.97821,2.45121l-.01959-.03176c.01078.01231.02211.02518.03247.03848.02182.02364.04183.04911.06366.07458l.00182.00181c.06549.07444.131.15084.20009.22542a19.07432,19.07432,0,0,0-2.14953-4.24071c-4.62453-6.89776-14.0499-11.99328-26.665-13.38442.10928.63022.24375,1.26492.39836,1.90312-.15489-.63806-.28936-1.27276-.39892-1.9027-22.79174-2.51432-47.343,7.99715-54.85254,23.46968a19.61282,19.61282,0,0,0-1.939,12.03651c.3389,1.81568.88852,4.12248,1.35462,6.07039A19.11443,19.11443,0,0,1,645.68,295.97513c7.50951-15.47224,31.76739-27.27733,54.19742-26.36053l.00014.00028c12.9624.85116,21.59314,4.59542,26.18857,11.40041a19.63025,19.63025,0,0,1,1.06553,1.76754,14.58429,14.58429,0,0,0-.95471-1.41479c-4.359-5.72294-13.28242-9.13446-25.29011-8.718l.00028.0007c-21.873.76035-45.68,13.92411-53.18952,29.39663-2.58162,5.319-2.90375,10.21917-1.32693,14.32948.7875,1.9875,1.98318,4.57709,2.85825,6.52779-6.94309-15.66814,18.45154-42.41193,52.96272-47.28189-.08773-.17841-.17168-.35653-.25592-.53465.08452.1784.16861.3568.25676.53521,11.57491-1.31656,20.12561,1.2694,24.26278,6.41586a12.65552,12.65552,0,0,1,1.191,1.76935c.029.05961.056.11908.08172.17855-3.3673-5.46227-11.86511-7.71479-23.84832-5.28176-20.21963,4.10512-42.68758,19.9784-50.19709,35.45092-3.02939,6.24151-3.16512,11.46576-.923,15.20947,1.01124,1.65126,2.44449,3.74664,3.56921,5.42266-2.154-3.39011-1.93642-8.48661,1.15943-14.865C664.99785,304.45083,686.61422,287.28717,705.78259,281.58885Z"/>
            <path class="cls-6" d="M710.36626,287.064c8.91339-4.67379,15.17337-5.26805,17.90625-2.42967-.09613-.0999-.21854-.23843-.31147-.34114-3.02113-3.63526-10.04063-3.87383-19.96091.148-17.94319,7.2743-38.56721,25.71437-46.07672,41.18689-3.35849,6.91973-3.52878,12.0764-1.08764,15.01371,1.28032,1.51147,3.088,3.43895,4.42066,4.90438-2.3657-2.45708-2.08741-7.4881,1.39939-14.67229C674.16534,315.40139,693.73054,295.78749,710.36626,287.064Z"/>
            <path class="cls-6" d="M715.77592,291.952c6.98451-5.84678,11.69608-7.83722,13.62257-6.30994l-.02393-.019c-.12243-.0978-.26768-.22192-.40408-.33889a31.28454,31.28454,0,0,0-1.03855-4.89991c-3.28433-11.19487-12.7388-22.40779-26.20858-29.49277-.15629.274-.304.55215-.44776.83228.14371-.28041.29133-.55872.44723-.833-20.8058-10.94328-43.52045-8.018-51.67907,6.35248l-1.9952,3.79295-.96786,2.13722.00644-.01343c7.50951-15.47253,31.45325-19.935,53.49485-9.95289l.00014-.00028c13.79118,6.24655,23.56553,16.672,27.10245,27.39206a29.54125,29.54125,0,0,1,1.11672,4.54086l-.01805-.01539c-2.34627-2.14338-7.82757-.80149-15.76161,4.50154-15.16875,10.13885-33.54554,30.89915-41.05508,46.37168-3.58265,7.38162-4.0483,12.22919-1.9104,14.18213,1.3833,1.24142,3.30714,2.80593,4.72836,4.00383l.16455.13055c-1.83624-1.45565-1.14123-6.10844,2.52579-13.66413C684.98451,325.17741,702.12872,303.37606,715.77592,291.952Z"/>
            <path class="cls-6" d="M721.85427,296.17662c5.14016-6.87313,8.39538-9.846,9.30546-9.2839l-.212-.15658c.458-2.21544.82405-4.52295,1.09953-6.8902.1945-1.67309.34548-3.377.44917-5.09916.77462-12.66968-.89483-26.40126-5.04641-37.12332-.25019.0091-.5.02127-.74944.03456.24962-.01357.49953-.026.75014-.0354-4.10919-10.61543-9.75784-15.98871-15.24611-15.76567-2.07329.09138-4.829.35919-6.89708.5313,9.08577-.44216,14.763,8.05,18.69389,15.49771h.001c5.24622,10.63461,7.8957,24.286,7.75746,36.90265-.01819,1.684-.08732,3.34968-.20541,4.9882-.16833,2.33844-.43951,4.61922-.81325,6.81367l-.22136-.1458a62.49571,62.49571,0,0,0,.52724-6.717c.04186-1.59487.03092-3.21507-.03638-4.85177-.50191-12.50779-4.139-25.98848-10.48923-36.43586l-.0007.00014c-6.86473-11.2938-15.27774-16.38778-22.46261-14.89016-1.78855.383-4.06.98522-5.976,1.48895,7.79188-1.765,17.25559,3.0764,25.27555,14.19193l-.00056.00014c7.3486,10.1874,11.88036,23.42434,12.96786,35.774.14007,1.58577.22377,3.15686.24921,4.70443a56.04059,56.04059,0,0,1-.26516,6.59622l-.12229-.0806c-.028-.01973-.05863-.03582-.08855-.05289a51.04259,51.04259,0,0,0,.01229-6.45364c-.08913-1.49482-.23648-3.01147-.44566-4.539a70.33839,70.33839,0,0,0-15.34072-34.88437l.00042-.00014c-9.97528-11.81642-21.54472-16.10233-30.22373-12.53228-1.63293.689-3.66787,1.66288-5.42393,2.50873,9.16371-4.02957,21.80527-.20821,32.9506,11.276l-.00056.00028a67.18114,67.18114,0,0,1,17.44519,33.83913q.39816,2.204.61455,4.36805a47.61761,47.61761,0,0,1,.21647,6.27942c.04659.036.09473.07137.14258.10663-1.53246-.76148-5.39272,1.85177-11.255,8.04529-11.98153,12.65834-27.77658,35.4596-35.28621,50.93212-3.7177,7.65994-4.71089,12.09165-3.3143,13.08092l4.02859,2.658,1.24814.77084c-.91092-.56264.40592-4.78432,4.1649-12.52919A392.48391,392.48391,0,0,1,721.85427,296.17662Zm-9.13852-55.171q.48275-.22941.9799-.4458Q713.19779,240.77535,712.71575,241.0056Z"/>
            <path class="cls-6" d="M773.316,240.22929c-1.4022-.98717-5.2833,1.616-11.29464,8.0362h.001a232.08294,232.08294,0,0,0-21.80778,28.30367q-1.71121,2.5663-3.33009,5.12225c-1.33167,2.1007-2.6096,4.18349-3.81366,6.21982-.03064-.01469-.06115-.0284-.09277-.04309.00532.73321-1.28955,4.09813-4.5333,11.794-12.326,28.921-30.70982,67.91585-31.72122,67.91585l-.01161-.0021-2.46423-1.15886-3.15307-1.59711c-.333-.19282,1.35055-4.20559,5.12632-11.98474,7.50949-15.47309,20.4593-40.00088,28.92843-54.79015,4.212-7.35672,6.51912-10.91334,6.84892-10.72374l.02535.01259c.85016-2.19025,1.69293-4.46152,2.51891-6.78568.62575-1.7625,1.24-3.5555,1.84156-5.36655A237.39867,237.39867,0,0,0,745.399,240.167c1.37169-8.67356,1.062-13.3195-.54781-13.80518l4.08344,1.37057,1.85947.68689c.28657.10537.433.58055.433,1.42332,0,1.92692-.76584,5.7764-2.37454,11.5202-2.65706,9.48694-7.03435,22.08581-11.70254,34.02005q-1.05867,2.70859-2.1312,5.35816c-.92715,2.28932-1.86045,4.5333-2.78451,6.69934l.21814.11055c.99669-2.13652,2.01744-4.34259,3.05205-6.59175q1.21042-2.63283,2.4368-5.32877c5.29911-11.64963,10.651-23.8041,14.40993-32.81376,3.26278-7.82126,4.71129-11.79822,4.41842-11.91632l2.73387,1.28116,2.87924,1.45382c-.34338-.08535-2.60849,3.4945-6.73083,10.78908-4.79356,8.47962-11.061,20.15163-16.95209,31.48111-.92183,1.773-1.83527,3.53871-2.73177,5.2812-1.13043,2.19977-2.2388,4.36679-3.30182,6.46861l.22137.10424c1.13353-2.06375,2.32192-4.18027,3.5513-6.3242.98927-1.7236,2.00387-3.46609,3.03736-5.2118,6.48218-10.96063,13.6566-22.06791,19.47621-29.93983l-.001-.001c5.10114-6.89944,8.19629-10.01054,9.08018-9.46581l1.50125.92393Z"/>
            <path class="cls-6" d="M811.26363,296.10134c-2.08391-10.16753-13.09727-18.27746-29.51-20.14-.01161-.06954-.0242-.13909-.03792-.20975.0126.07066.02533.14021.0368.20975-14.68376-1.66777-30.10731,2.07747-41.23138,9.08969a46.51109,46.51109,0,0,0-5.159,3.75266c1.21259,1.12724,1.31585,5.66991.02854,13.527-2.8097,17.15863-11.1757,43.604-18.68521,59.0769-3.72523,7.67379-6.54011,11.2125-8.0909,10.73955l-3.799-1.28115-2.13554-.79324c.91456.33918,3.36073-3.32813,7.1229-11.07775a431.05334,431.05334,0,0,0,22.13633-57.87047c2.35565-8.2332,2.90989-12.50526,1.99758-12.84346-.06745-.02631-.13391-.05471-.20024-.08116,1.38009-1.873,2.86763-3.759,4.44585-5.6299q2.01157-2.38621,4.19608-4.73129h.00112c8.524-9.14566,18.77463-17.53055,28.09085-22.47369,8.86959-4.705,15.09165-5.33606,17.80858-2.53573,1.338,1.46124,3.15112,3.38172,4.43634,4.88829-3.00882-3.59566-9.99151-3.79267-19.86814.26334v.00112c-10.01054,4.10975-20.87113,11.72239-29.80914,20.34011q-2.32619,2.24412-4.46278,4.56283c-1.64342,1.7825-3.18582,3.59146-4.61334,5.40237l.25707.06535c1.46234-1.73088,3.05413-3.44608,4.74932-5.12743,1.49916-1.48656,3.07934-2.94668,4.725-4.36679,9.32139-8.04361,20.73622-14.81557,31.382-18.03092,10.93544-3.30279,18.68927-2.13862,21.91734,2.35886,1.11983,1.66344,2.62948,3.84207,3.71463,5.58037-3.39448-5.35914-11.83407-7.52421-23.71779-5.0611v-.001c-11.17668,2.3166-23.053,8.249-32.6979,15.709-1.732,1.34006-3.39235,2.72854-4.963,4.15494-1.73731,1.57612-3.364,3.19953-4.85989,4.85037l.278.08326A62.38292,62.38292,0,0,1,739.71,283.9701a79.48809,79.48809,0,0,1,18.37429-11.15877,72.12467,72.12467,0,0,1,20.748-5.7438q2.78921-.2275,5.30236-.22654c10.67936,0,17.57782,3.071,20.53824,9.15826.866,1.95322,2.05016,4.54589,2.82871,6.53591-4.95056-10.80056-17.6222-12.757-27.38087-12.49673-.03065-.07906-.06-.158-.09166-.236.03051.07807.061.157.09054.236-14.215.44356-29.25294,6.123-40.10722,14.28988a56.03073,56.03073,0,0,0-5.02318,4.24771.97745.97745,0,0,1,.2117.10228,50.93828,50.93828,0,0,1,5.08755-3.98227,69.4078,69.4078,0,0,1,40.82574-11.62458l.001.00112c10.138.7416,16.83833,3.19953,21.24206,6.31469a18.60253,18.60253,0,0,1,7.46516,10.26129C810.26918,291.56692,810.8675,294.06165,811.26363,296.10134Z"/>
            <path class="cls-6" d="M773.96947,297.90946l.00014-.00014c-4.6882-3.65709-19.08176-13.548-33.22807-9.76189q-.94912.25376-1.89851.59286.87838-.27264,1.793-.46735c9.11625-1.95853,20.63644,1.81119,31.11659,11.28918l-.0003.00028c17.27882,15.62882,25.1846,40.83595,17.67509,56.30848a20.50193,20.50193,0,0,1-6.36926,7.77369c1.712-1.21287,3.74328-2.7827,5.30933-3.988l.05639-.047a21.03328,21.03328,0,0,0,5.438-7.0451C801.37161,337.09191,792.47347,312.62471,773.96947,297.90946Zm-1.81987,1.38078q.82737-.57341,1.59081-1.1951Q772.9773,298.71683,772.1496,299.29024Z"/>
            <path class="cls-6" d="M812.2466,304.34393c-.66478-11.76661-12.23241-22.188-30.15894-25.46446v.00112A64.23993,64.23993,0,0,0,746.501,282.5679a51.32343,51.32343,0,0,0-5.77539,2.84651,42.75046,42.75046,0,0,0-5.11276,3.43866c.05586.01693.11068.03162.16539.04646h-.00629c2.29142.56152,3.64939,5.39818,3.23437,14.45107-.81226,17.72112-7.56114,44.62261-15.07052,60.09555-3.67472,7.57053-6.851,11.00709-9.04337,10.46978l.99976.24235,5.2507,1.09883c2.776.48358,6.25676-2.88778,9.85145-10.295,7.50937-15.47295,12.67905-42.71362,11.54118-60.8541-.53312-8.504-2.35886-13.4923-4.923-14.79654.13055-.03373.26641-.06745.38034-.09487l.00725-.00112c3.56824.84711,6.58866,6.07038,8.19109,15.42985,3.15741,18.43642-.375,45.91734-7.88451,61.39028-3.505,7.22183-7.25765,10.55527-10.58354,10.18545,1.969.21171,4.605.36241,6.57915.50457,3.76217.136,7.6875-3.18792,11.065-10.14529,7.50951-15.47294,9.46161-43.07616,4.35419-61.66328-2.74964-10.0062-6.98577-15.35177-11.48325-15.73838l.10635-.01581c5.42042-.13587,10.97028,5.2381,14.99467,15.77,7.106,18.59566,6.772,46.20615-.7374,61.6791-3.23326,6.6603-7.26828,9.98941-11.38223,10.14,2.0723-.08312,4.82731-.34016,6.89426-.50458,4.30984-.50457,8.3365-3.84319,11.3916-10.138,7.50952-15.47182,6.299-42.97065-2.71483-61.42722-5.30667-10.868-12.13754-16.16922-18.38913-15.52766,11.23895-1.59921,19.22983,10.85849,21.87722,14.98614,15.91231,27.37766,13.24377,65.851-4.922,70.97532,2.0965-.44035,4.85779-1.17887,6.93428-1.70989,4.232-1.25681,7.92033-4.55009,10.53512-9.93778,7.50954-15.47294,3.31861-42.37975-9.37416-60.10717-8.01926-11.19892-17.51362-16.0472-25.31068-14.18983-.0368-.00308-.07472-.0042-.11264-.0063a16.06224,16.06224,0,0,1,2.05859-.452c8.07928-1.22519,17.84328,3.37863,26.40841,13.59556h.00095c14.37523,17.146,19.92831,43.58185,12.41894,59.05368-2.26511,4.66707-5.45835,7.80545-9.20877,9.44272,1.94468-.8292,4.35308-1.99114,6.19254-2.86455a19.502,19.502,0,0,0,8.43232-9.06339c7.50937-15.47294.7437-41.35256-15.12747-57.81155l-.001.001c-9.54181-9.89455-20.2002-14.12435-28.81582-12.55677a18.07848,18.07848,0,0,0-2.52314.64576l-.07794-.0063c.3487-.14328.69739-.28027,1.04611-.40564q-.58458.1803-1.15147.39725c-.06633-.0063-.13069-.01162-.19072-.01693a24.73023,24.73023,0,0,1,3.44608-1.29263c9.86516-2.89184,22.34608-.14007,35.05888,8.17947,19.62381,13.66721,29.4288,37.28493,21.9183,52.7569a21.71976,21.71976,0,0,1-3.43027,5.11049c1.1737-1.28522,2.54958-2.95089,3.62519-4.20868l.99669-1.29584a25.02448,25.02448,0,0,0,4.61543-14.90933c0-12.66646-8.07215-27.7791-26.02611-39.46147h-.001c-11.08516-6.72775-25.22644-10.29388-36.62966-6.50443a26.42914,26.42914,0,0,0-3.87061,1.635,3.02643,3.02643,0,0,0-.355-.09907,29.20775,29.20775,0,0,1,4.291-1.91949A34.33862,34.33862,0,0,1,746.816,285.643c9.67024-1.66035,21.28936.26026,32.35451,6.122,19.21707,10.61515,33.75447,31.165,24.35723,49.90381l2.17863-4.11492,1.31055-2.872a23.6533,23.6533,0,0,0,1.81525-9.21814c0-11.82789-8.13946-25.99967-28.50713-36.00811v-.001a57.92881,57.92881,0,0,0-23.8388-5.38251,45.45741,45.45741,0,0,0-9.5723.98718,37.00784,37.00784,0,0,0-5.77961,1.73731,31.10892,31.10892,0,0,0-4.51637,2.19865l-.24235-.03792a33.75017,33.75017,0,0,1,4.71662-2.501,40.24844,40.24844,0,0,1,5.83752-2.01646c10.1306-2.67706,22.46614-2.05229,34.295,2.49472A58.23371,58.23371,0,0,1,801.151,299.94663c6.90473,7.166,11.0482,16.38736,8.57026,27.168l.78708-2.96362.92281-4.52267a18.19694,18.19694,0,0,0,.22332-2.99832c0-6.8278-3.04995-22.89808-29.847-32.25223a62.28987,62.28987,0,0,0-18.75364-2.91926,54.52127,54.52127,0,0,0-16.18936,2.37033,43.69142,43.69142,0,0,0-5.85322,2.28932,36.48178,36.48178,0,0,0-4.88941,2.8076l-.27607-.02113a39.71567,39.71567,0,0,1,5.04011-3.14146,47.21686,47.21686,0,0,1,5.83111-2.57281,61.75843,61.75843,0,0,1,35.38656-1.56017,55.91387,55.91387,0,0,1,18.41543,8.45024c6.39683,4.73549,11.68545,11.68138,11.76241,21.71921l.05793-1.478C812.38037,308.52853,812.28343,306.13707,812.2466,304.34393ZM737.917,289.19659c.02211.00531.0431.00951.06521.01469-.12426.03064-.24865.06437-.3729.09907a.21318.21318,0,0,0-.02743-.0147c.06647-.02.13489-.04.20863-.06226C737.83165,289.22079,737.87475,289.20918,737.917,289.19659Zm-.42887-.07164c.05793.00629.11488.01469.17171.02322-.06844.02631-.138.05262-.20641.08.0452.001.09167.00308.13475.001.05373-.02211.10746-.0431.16231-.0652.01889.00307.039.00629.05793.01049-.05583.01889-.11278.0368-.16957.05681-.03584.01273-.07276.02645-.1086.039-.061-.02841-.12216-.05583-.18428-.08C737.3934,289.16818,737.4407,289.14593,737.48813,289.125Z"/>
          </g>
          <g class="cls-57">
            <path class="cls-6" d="M22.65489,127.04788c.17225-.82584.329-1.66819.469-2.51922a55.6255,55.6255,0,0,0,.27075-17.663h0c-1.144-5.95971-2.78955-7.10443-4.24827-7.438-.87649-.09123-2.0292-.15629-2.94683-.21744,2.14842.21856,4.17621,2.77514,5.5062,7.53064h-.00028a43.82763,43.82763,0,0,1,1.40709,11.52677,55.38067,55.38067,0,0,1-.35149,6.23927c-.094.83984-.20891,1.67-.34114,2.48536-.18708,1.14263-.40984,2.25559-.66926,3.3242.03316.02.06619.04086.10019.06087C22.14752,129.307,22.41646,128.19219,22.65489,127.04788Z"/>
            <path class="cls-6" d="M20.13889,128.97129l-.01455-.02.01721.02785Z"/>
            <path class="cls-6" d="M46.78235,111.80861c-.61805-.41894-2.06585-1.40051-7.49538,2.1985A65.06935,65.06935,0,0,0,26.78045,125.7614q-.96864,1.16237-1.87192,2.33774c-.7188.93568-1.39884,1.87178-2.03353,2.79794-.03485-.01609-.06969-.03078-.10341-.04533.60741-.95037,1.25471-1.91824,1.93432-2.88918q.83789-1.19867,1.73676-2.39818A80.812,80.812,0,0,1,37.9651,112.89751c3.32379-2.81152,5.56063-3.778,6.47211-3.05849l.19043.1507C45.27452,110.53515,46.15213,111.24443,46.78235,111.80861Z"/>
            <path class="cls-6" d="M25.1443,107.11691h.00028a66.09814,66.09814,0,0,1-1.64216,17.45443c-.18876.8597-.39068,1.70989-.60476,2.54524-.29231,1.14-.60826,2.25308-.94422,3.32071.03232.01833.06535.0375.09921.05569.37332-1.06245.73279-2.16758,1.07742-3.3007.25579-.84053.5029-1.696.73965-2.56091a82.39183,82.39183,0,0,0,2.9639-17.15709h-.00014c.17644-4.3416-.42635-6.69151-1.53806-6.96143l-.3396-.08185L22.391,99.89858C23.8097,100.23356,24.84346,102.67428,25.1443,107.11691Z"/>
            <path class="cls-6" d="M16.19957,99.21015q-.10158-.0105-.20359-.01385C16.06231,99.20091,16.13045,99.20553,16.19957,99.21015Z"/>
            <path class="cls-6" d="M3.05121,100.718c-.1521.03443-.30294.07347-.45224.11852C2.74323,100.79886,2.89506,100.759,3.05121,100.718Z"/>
            <path class="cls-6" d="M10.13521,110.1372l.01427-.01175-.01427.01175a29.45352,29.45352,0,0,1,10.10317,14.93185q.25962.9594.42985,1.90928a19.34043,19.34043,0,0,1,.2958,2.78284c.02966.02435.06017.04785.09054.0722a20.72348,20.72348,0,0,0-.20709-2.89953q-.13833-.99194-.36815-2.00051a30.72248,30.72248,0,0,0-9.28853-15.59147c-.05163.03457-.102.07039-.15279.10565.05079-.03526.101-.07108.15265-.10565-6.41711-5.7687-13.63418-7.09841-18.23814-3.98017-.82556.57145-1.88186,1.39575-2.67762,2.00821l-.15909.13334C-5.21488,103.56309,2.8707,104.3948,10.13521,110.1372Z"/>
            <path class="cls-6" d="M8.36431,112.01416h0a26.93555,26.93555,0,0,1,11.45541,13.3847q.30812.85634.52654,1.71254a16.42459,16.42459,0,0,1,.44118,2.50271l.0862.07318a17.8597,17.8597,0,0,0-.37682-2.64809q-.19582-.90189-.48386-1.81091A28.16329,28.16329,0,0,0,9.172,111.05007c-.10942.11628-.21506.23508-.31861.35527.10355-.12019.209-.23927.31833-.35569-8.17738-5.6604-17.20438-5.85475-21.78945-.954-.55383.59468-1.23946,1.43494-1.76754,2.05257l-.58195.76021C-10.62342,107.04919-.69054,106.51971,8.36431,112.01416Z"/>
            <path class="cls-6" d="M6.42215,116.632l-.00014.00042c6.12453,1.9223,10.68358,5.52664,12.87565,9.628a13.41375,13.41375,0,0,1,.60909,1.30186,11.90441,11.90441,0,0,1,.55691,1.75257c.02532.02434.04967.04785.07486.07136a12.88592,12.88592,0,0,0-.55341-1.95979,14.65141,14.65141,0,0,0-.60125-1.40192v-.00084c-2.13386-4.344-6.62841-8.30778-12.68942-10.61739-.01567.055-.0298.11054-.04463.16581.01483-.05541.029-.111.04463-.16609-10.7818-4.10877-22.42933-1.43228-26.02275,5.97173a10.62667,10.62667,0,0,0-.66227,1.732l-.32784,1.24953-.32645,1.6209a10.52277,10.52277,0,0,1,.77211-2.15038C-16.2792,116.42572-4.50994,113.20059,6.42215,116.632Z"/>
            <path class="cls-6" d="M6.30139,119.26677v-.00014c6.11222,1.09813,10.68148,3.9368,12.91525,7.51413a10.69277,10.69277,0,0,1,.60406,1.10429,9.86881,9.86881,0,0,1,.50121,1.2827l.00085.00084c.02168.0235.04435.04785.067.07136a10.77943,10.77943,0,0,0-.53956-1.52379,12.23168,12.23168,0,0,0-.61007-1.2c-2.22761-3.83843-6.812-7.05825-12.953-8.56721v.00014C-4.71941,115.24531-16.549,119.06-20.14254,126.46383a10.11169,10.11169,0,0,0-1.03293,3.97934l-.01945.53535c-.01861.90784.03093,2.11833.05429,3.02645C-21.44258,125.23458-9.5222,116.88664,6.30139,119.26677Z"/>
            <path class="cls-6" d="M9.60713,127.77829c5.2395-1.55751,8.96082-.98536,10.51721,1.173l-.00952-.01511.01567.01833c.01036.01133.02.02351.03037.03568l.00084.00084c.03134.03568.06268.0722.09585.10788a9.13232,9.13232,0,0,0-1.02859-2.02919c-2.21306-3.3007-6.72328-5.739-12.75994-6.40481.05234.30168.1167.60532.19072.91064-.07416-.30532-.13852-.609-.191-.91036C-4.4376,119.462-16.186,124.492-19.77943,131.89587a9.38487,9.38487,0,0,0-.92785,5.75975c.16218.86893.4251,1.97281.64814,2.90485a9.14631,9.14631,0,0,1,.90587-5.898c3.59343-7.40373,15.20135-13.05279,25.93475-12.614v.00014c6.20275.40719,10.33279,2.19893,12.53185,5.45527a9.38371,9.38371,0,0,1,.50989.84585,6.98663,6.98663,0,0,0-.45686-.6771c-2.08586-2.73847-6.356-4.371-12.10186-4.17173v.00042c-10.4667.36367-21.85886,6.663-25.45242,14.06683a8.50883,8.50883,0,0,0-.635,6.857c.37682.95107.94911,2.19025,1.36777,3.12369-3.32238-7.49762,8.82957-20.29505,25.344-22.62551-.042-.08535-.08214-.17057-.12244-.25578.04044.08535.0806.17071.12286.25606,5.5388-.62994,9.6305.60742,11.6103,3.0701a6.06234,6.06234,0,0,1,.56992.84669c.01385.02855.02672.05709.039.0855-1.61124-2.61381-5.67761-3.69179-11.41189-2.52748-9.67556,1.96442-20.427,9.56012-24.02057,16.96413-1.44963,2.98671-1.51455,5.48662-.4416,7.27808.48386.79016,1.16977,1.79286,1.70793,2.59492-1.03083-1.6223-.92659-4.06106.5548-7.11325C-9.90938,138.71835.4346,130.50515,9.60713,127.77829Z"/>
            <path class="cls-6" d="M11.8006,130.39839c4.2652-2.23657,7.26073-2.5209,8.56847-1.16264-.0459-.04785-.10453-.11418-.149-.16329-1.44571-1.73955-4.80462-1.85373-9.55173.0708-8.58623,3.48092-18.45531,12.305-22.04887,19.7089-1.60705,3.31134-1.68862,5.77892-.52038,7.18447.61259.72328,1.47761,1.64566,2.11539,2.34683-1.13214-1.17579-.99893-3.58321.66968-7.021C-5.52244,143.95842,3.84,134.57278,11.8006,130.39839Z"/>
            <path class="cls-6" d="M14.38922,132.73738c3.34225-2.79781,5.59687-3.75028,6.5187-3.01945l-.01147-.00909c-.05849-.04674-.128-.10621-.19338-.16218a14.96184,14.96184,0,0,0-.49688-2.34472c-1.57164-5.357-6.09584-10.72276-12.5415-14.113-.07472.13111-.14553.26418-.21423.39823.0687-.13419.13937-.2674.214-.39851-9.956-5.2367-20.82551-3.83689-24.72957,3.03974l-.95485,1.81511-.463,1.02258.00294-.00644c3.59356-7.40387,15.0512-9.53927,25.59864-4.76264v-.00014c6.59944,2.98923,11.27672,7.978,12.96926,13.10779a14.1536,14.1536,0,0,1,.53438,2.1729l-.00868-.00741c-1.12276-1.02566-3.74566-.38354-7.54226,2.15415-7.25863,4.85163-16.05237,14.786-19.64594,22.18992-1.71436,3.53227-1.93712,5.85195-.91412,6.78652.662.594,1.58255,1.34272,2.26259,1.91585l.07877.06255c-.87859-.69655-.54612-2.923,1.20868-6.53871C-.3452,148.63654,7.85862,138.204,14.38922,132.73738Z"/>
            <path class="cls-6" d="M17.29785,134.759c2.45974-3.28908,4.01739-4.71156,4.45284-4.44263l-.10144-.07486c.21926-1.06021.3943-2.16436.52612-3.2972.09318-.80065.16539-1.616.21492-2.44A43.95757,43.95757,0,0,0,19.9756,106.74c-.11978.0042-.23927.01008-.35863.01637.1195-.00643.239-.01231.35891-.01693-1.96637-5.07971-4.66931-7.65084-7.29571-7.54421-.99207.04379-2.31073.17183-3.30028.25424,4.34776-.21157,7.06441,3.85215,8.94543,7.416h.00042A40.45466,40.45466,0,0,1,22.038,124.52432q-.013,1.20875-.09837,2.387c-.0806,1.119-.21031,2.21026-.38913,3.2604l-.10593-.06968a29.90091,29.90091,0,0,0,.25229-3.21423c.02-.76315.01483-1.53862-.01749-2.32178a37.59642,37.59642,0,0,0-5.01926-17.4354l-.00056.00014c-3.28475-5.40433-7.31054-7.842-10.74865-7.12541-.85592.1833-1.94286.47154-2.85965.71263,3.72859-.84472,8.25713,1.472,12.09486,6.79114h-.00014a35.46522,35.46522,0,0,1,6.20541,17.11875c.067.75881.10705,1.51063.11922,2.25126a26.8011,26.8011,0,0,1-.12691,3.15643l-.05849-.03862c-.01343-.00951-.02813-.01707-.0424-.02532a24.43026,24.43026,0,0,0,.00588-3.08815c-.04268-.7153-.11306-1.4411-.21325-2.17207a33.65968,33.65968,0,0,0-7.3409-16.69309h.00014C8.92136,102.36379,3.38507,100.313-.768,102.02125c-.78149.3298-1.75509.79576-2.59548,1.20056,4.385-1.92831,10.43437-.09963,15.76763,5.3958l-.00028.00014a32.14669,32.14669,0,0,1,8.34794,16.19286q.19059,1.0547.29413,2.09021a22.81469,22.81469,0,0,1,.10354,3.00489c.02239.01721.04534.03414.06828.05094-.73334-.36437-2.58064.88614-5.38586,3.8499a116.48552,116.48552,0,0,0-16.88521,24.3722c-1.779,3.66548-2.25434,5.78619-1.58606,6.25956l1.92776,1.27192.59734.36884c-.43587-.26921.19421-2.28932,1.993-5.99552A187.82958,187.82958,0,0,1,17.29785,134.759Zm-4.37309-26.40069q.23109-.10977.469-.21339Q13.15556,108.248,12.92476,108.35833Z"/>
            <path class="cls-6" d="M41.92359,107.98683c-.67108-.47239-2.52831.77336-5.4049,3.84543h.00056a111.07228,111.07228,0,0,0-10.43549,13.54407q-.819,1.22805-1.59361,2.45107c-.63722,1.00523-1.2487,2.00191-1.82491,2.97635l-.04435-.02057a37.85056,37.85056,0,0,1-2.16927,5.64375C14.55321,150.26625,5.7561,168.92627,5.2721,168.92627l-.00545-.00111-1.17916-.55453-1.50895-.76427c-.15923-.09221.64631-2.01241,2.45318-5.735C8.62513,154.46723,14.82187,142.73,18.87466,135.653c2.01549-3.52039,3.1195-5.2223,3.27734-5.13149l.012.006c.4069-1.048.81017-2.135,1.20546-3.24711.29944-.84347.59342-1.70149.88125-2.568A113.59557,113.59557,0,0,0,28.56449,107.957c.65639-4.15046.50821-6.37374-.26208-6.60615l1.95406.656.88979.32868c.13712.05038.20709.27775.20709.681a25.6563,25.6563,0,0,1-1.1362,5.51264c-1.2715,4.53974-3.36618,10.5687-5.59995,16.27947q-.50667,1.29606-1.01991,2.564c-.44357,1.09548-.8902,2.16927-1.33237,3.20583l.10438.0529c.47687-1.0223.96535-2.078,1.4604-3.15434q.5793-1.25974,1.16614-2.54986c2.53573-5.57477,5.09678-11.3909,6.89552-15.70228,1.56129-3.74259,2.25448-5.64571,2.11427-5.70224l1.3083.61315,1.37771.69557c-.16427-.04072-1.24828,1.67225-3.22094,5.16283-2.2938,4.05783-5.29282,9.64309-8.11189,15.0645-.44119.84851-.87818,1.69338-1.30719,2.52719-.54095,1.05266-1.07127,2.08965-1.58,3.09543l.10592.04981c.54249-.98759,1.11115-2.00037,1.69939-3.02616.47337-.82486.95891-1.65868,1.45341-2.494,3.102-5.245,6.53508-10.56,9.31986-14.327l-.00042-.00042c2.441-3.30154,3.92211-4.79034,4.34511-4.52966l.71837.44216Z"/>
            <path class="cls-6" d="M60.0824,134.72292c-.99725-4.86534-6.2674-8.74617-14.12127-9.6375-.00559-.0333-.01161-.0666-.01819-.10032.00616.03372.01218.067.01763.10032a31.57,31.57,0,0,0-19.73016,4.34972,22.2431,22.2431,0,0,0-2.46871,1.79567c.58027.53941.62966,2.71329.01357,6.47308A123.19334,123.19334,0,0,1,14.834,165.97357c-1.78265,3.67206-3.12971,5.36544-3.87173,5.139l-1.81791-.613L8.12252,170.12c.43755.16231,1.60816-1.59249,3.40844-5.30093a206.26739,206.26739,0,0,0,10.59277-27.69249c1.12724-3.93974,1.3924-5.98405.95583-6.1458-.03218-.01259-.06394-.02617-.09571-.0389.66045-.89622,1.37225-1.79874,2.12743-2.694q.96254-1.142,2.00793-2.26413h.00056a54.90681,54.90681,0,0,1,13.44206-10.75411c4.24436-2.2514,7.22169-2.55336,8.52188-1.21343.6403.69921,1.50783,1.61824,2.12294,2.33913-1.43983-1.72052-4.78124-1.81483-9.5075.12607v.00056a48.32711,48.32711,0,0,0-14.26441,9.73321q-1.113,1.07379-2.1354,2.1834c-.78652.853-1.52449,1.71856-2.20761,2.58526l.123.0312c.69977-.82836,1.46152-1.649,2.27267-2.45359.71725-.71138,1.47355-1.41,2.26091-2.08965a43.523,43.523,0,0,1,15.01707-8.62821c5.23293-1.58046,8.94333-1.02342,10.488,1.12878.53592.796,1.25835,1.83847,1.77761,2.67033-1.62424-2.56455-5.66291-3.60056-11.34948-2.42183v-.00056a40.07272,40.07272,0,0,0-15.64673,7.51721c-.82878.64114-1.62328,1.30565-2.375,1.9882-.83129.7542-1.6097,1.53107-2.32555,2.32108l.13306.03988a29.80017,29.80017,0,0,1,2.375-2.16884,38.0391,38.0391,0,0,1,8.79249-5.33983,34.51511,34.51511,0,0,1,9.9284-2.74842q1.33467-.10893,2.53727-.10844c5.11049,0,8.41147,1.4695,9.82807,4.38246.41446.93457.981,2.17528,1.35364,3.12762-2.36894-5.16843-8.4326-6.10453-13.10233-5.98-.01469-.03778-.02882-.0757-.04394-.11292.0147.03722.02925.07514.04338.11292a35.161,35.161,0,0,0-19.19229,6.838,26.82836,26.82836,0,0,0-2.40365,2.03269.4657.4657,0,0,1,.10131.04884,24.40781,24.40781,0,0,1,2.43442-1.90565,33.21366,33.21366,0,0,1,19.5361-5.56259l.00056.00056c4.85121.35485,8.05746,1.53107,10.16474,3.02183a8.9017,8.9017,0,0,1,3.57229,4.91012C59.60651,132.5531,59.8928,133.74694,60.0824,134.72292Z"/>
            <path class="cls-6" d="M42.23618,135.58808h.00014c-2.24342-1.74991-9.13111-6.483-15.90042-4.67127q-.45418.12132-.90853.28377.42041-.13054.858-.22374c4.36231-.93722,9.87509.8667,14.89,5.40224l-.00028.00014c8.26846,7.47859,12.05163,19.54085,8.45806,26.94486a9.81,9.81,0,0,1-3.04784,3.71992c.81925-.58041,1.79131-1.33153,2.54061-1.90844l.027-.02239a10.06493,10.06493,0,0,0,2.60232-3.37136C55.34872,154.33794,51.0908,142.62968,42.23618,135.58808Zm-.87075.66087q.39583-.27453.76119-.57188Q41.76142,135.97449,41.36543,136.249Z"/>
            <path class="cls-6" d="M52.05264,162.37035q-.07513.08311-.15182.16455C51.95036,162.482,52.00129,162.42674,52.05264,162.37035Z"/>
            <path class="cls-6" d="M60.55269,138.66728c-.318-5.63074-5.8535-10.61754-14.43176-12.1854v.00056a30.74009,30.74009,0,0,0-17.02905,1.76446,24.54625,24.54625,0,0,0-2.76367,1.36217,20.45688,20.45688,0,0,0-2.4466,1.64538c.02673.00812.053.01512.07921.02225h-.00309c1.0966.26866,1.74641,2.58316,1.54772,6.91511-.38872,8.48-3.618,21.353-7.21161,28.75718-1.75831,3.62267-3.27832,5.26721-4.32748,5.01l.47841.116,2.51264.52584c1.32845.23144,2.99412-1.3819,4.71423-4.92635,3.59342-7.40415,6.06716-20.43959,5.52271-29.12014-.25509-4.06945-1.12878-6.45644-2.35579-7.08064.06241-.0161.12747-.03219.18191-.04534l.00363-.00042c1.70737.40522,3.1528,2.90471,3.91959,7.38344,1.51092,8.82229-.17952,21.97262-3.77294,29.37677-1.67728,3.45587-3.473,5.05088-5.06446,4.874.94212.1013,2.20354.17337,3.14818.24137,1.80028.06506,3.67878-1.52547,5.29491-4.85471,3.59357-7.40415,4.52771-20.613,2.08363-29.50732-1.31585-4.78824-3.343-7.34622-5.495-7.5312l.05094-.00756c2.59365-.06506,5.24944,2.50649,7.17523,7.54632,3.40032,8.89841,3.24053,22.11072-.35289,29.51487-1.54716,3.18708-3.478,4.78013-5.4466,4.85219.99165-.03974,2.30989-.16273,3.299-.24137,2.06236-.24151,3.98913-1.83918,5.45121-4.85135,3.59343-7.40359,3.01414-20.56245-1.2992-29.3944-2.53923-5.2006-5.808-7.73731-8.79963-7.43031,5.37817-.76526,9.20191,5.196,10.4688,7.17117,7.61445,13.10093,6.3375,31.51133-2.35523,33.96338,1.00313-.21073,2.32444-.564,3.3182-.81814a8.44578,8.44578,0,0,0,5.04122-4.75551c3.59357-7.40415,1.588-20.27966-4.48572-28.76277-3.83746-5.35886-8.38069-7.679-12.1118-6.79016-.01763-.0014-.03568-.002-.05387-.00294a7.66806,7.66806,0,0,1,.98507-.21632c3.86614-.58629,8.53839,1.6167,12.63708,6.50583h.00042c6.87887,8.2048,9.53619,20.85489,5.94277,28.25862a8.98082,8.98082,0,0,1-4.40667,4.51847c.93064-.39669,2.08307-.95275,2.96334-1.37071a9.33176,9.33176,0,0,0,4.035-4.337c3.59343-7.40429.356-19.78825-7.23875-27.66422l-.00056.00042c-4.56591-4.7348-9.66619-6.75882-13.78895-6.00868a8.65454,8.65454,0,0,0-1.20741.309l-.03736-.00294c.16693-.06857.33372-.13419.50065-.19408q-.27978.08605-.551.19c-.03176-.00308-.06255-.0056-.09124-.00812a11.836,11.836,0,0,1,1.649-.61861c4.72066-1.38372,10.69309-.067,16.77648,3.91414C52.596,141.21966,57.288,152.52129,53.694,159.925a10.39241,10.39241,0,0,1-1.64147,2.44547c.56166-.615,1.22-1.41212,1.7348-2.01394l.47686-.62015a11.97454,11.97454,0,0,0,2.20858-7.13452c0-6.06114-3.86263-13.2929-12.45405-18.8832h-.00042c-5.30457-3.2194-12.0715-4.92593-17.52817-3.1125a12.63111,12.63111,0,0,0-1.85219.78246,1.4308,1.4308,0,0,0-.16987-.04743,13.9608,13.9608,0,0,1,2.05327-.91847,16.42264,16.42264,0,0,1,2.72126-.70439A24.79977,24.79977,0,0,1,44.725,132.648c9.1959,5.07957,16.15229,14.9131,11.6555,23.88022l1.04259-1.96917.62714-1.37435a11.31956,11.31956,0,0,0,.86852-4.41114c0-5.65984-3.89482-12.44147-13.64132-17.23069v-.00042A27.71933,27.71933,0,0,0,33.87,128.96667a21.7524,21.7524,0,0,0-4.58059.47239,17.72411,17.72411,0,0,0-2.76563.8313,14.90053,14.90053,0,0,0-2.16114,1.05224l-.116-.01819a16.15039,16.15039,0,0,1,2.257-1.19679,19.2659,19.2659,0,0,1,2.79333-.96492,27.20857,27.20857,0,0,1,16.411,1.1937,27.867,27.867,0,0,1,9.53521,6.22654c3.30406,3.42915,5.2868,7.84184,4.10107,13.0006l.37654-1.41814.44175-2.16422a8.72915,8.72915,0,0,0,.10676-1.4348c0-3.26726-1.45942-10.95727-14.28246-15.43348a29.80919,29.80919,0,0,0-8.97411-1.39688,26.088,26.088,0,0,0-7.747,1.13424,20.90975,20.90975,0,0,0-2.801,1.09547,17.4652,17.4652,0,0,0-2.33956,1.34356l-.13209-.01007a18.98872,18.98872,0,0,1,2.41176-1.50336,22.58979,22.58979,0,0,1,2.79039-1.23106,29.5527,29.5527,0,0,1,16.9332-.74664,26.75473,26.75473,0,0,1,8.81222,4.0437A12.73787,12.73787,0,0,1,60.56934,142.235l.0277-.70732C60.61677,140.66961,60.57032,139.5253,60.55269,138.66728Zm-35.56846-7.24841.0312.007c-.05947.01469-.11894.03079-.17841.04744l-.01315-.00714.09991-.02966Zm-.20514-.03429c.02771.00294.05486.007.08214.01106-.03274.01259-.066.02518-.09879.03834.02169.00042.0438.00154.06451.00042l.07766-.03121.0277.005c-.02672.0091-.054.01763-.08115.02729l-.05192.01861c-.02924-.01358-.05848-.02673-.08829-.03834C24.73362,131.40529,24.75629,131.39466,24.77909,131.38458Z"/>
            <path class="cls-6" d="M60.0824,134.72292c.019.09837.0375.1952.05457.28867C60.1206,134.9149,60.102,134.81877,60.0824,134.72292Z"/>
          </g>
        </g>
      </g>
    </g>
  </g>
</svg>
